<svg width="20" height="20" viewBox="0 0 20 20" fill="none" xmlns="http://www.w3.org/2000/svg">
<path d="M17.7923 5.25H2.20898M16.2642 7.54167L15.8426 13.8667C15.6803 16.2995 15.5997 17.5159 14.8067 18.2575C14.0138 19 12.7937 19 10.3554 19H9.6459C7.20757 19 5.98748 19 5.19457 18.2575C4.40165 17.5159 4.32007 16.2995 4.15873 13.8667L3.73707 7.54167M7.70898 9.83333L8.16732 14.4167M12.2923 9.83333L11.834 14.4167" stroke="#3B84BA" stroke-linecap="round"/>
<path d="M4.95898 5.25H5.05982C5.42873 5.24057 5.7862 5.12004 6.0855 4.90415C6.38479 4.68827 6.61197 4.38709 6.73732 4.04L6.76848 3.94558L6.8574 3.67883C6.93348 3.45058 6.97199 3.33692 7.0224 3.23975C7.12159 3.04944 7.26395 2.88499 7.43809 2.75956C7.61223 2.63413 7.8133 2.55121 8.02524 2.51742C8.13249 2.5 8.25257 2.5 8.49273 2.5H11.5086C11.7487 2.5 11.8688 2.5 11.9761 2.51742C12.188 2.55121 12.3891 2.63413 12.5632 2.75956C12.7374 2.88499 12.8797 3.04944 12.9789 3.23975C13.0293 3.33692 13.0678 3.45058 13.1439 3.67883L13.2328 3.94558C13.349 4.33175 13.5892 4.66884 13.9164 4.90466C14.2435 5.14047 14.6392 5.26185 15.0423 5.25" stroke="#3B84BA"/>
</svg>
