<svg width="37" height="37" viewBox="0 0 37 37" fill="none" xmlns="http://www.w3.org/2000/svg">
<path fill-rule="evenodd" clip-rule="evenodd" d="M26.2819 7.8354C25.4263 7.39943 24.4136 7.39943 23.558 7.8354C23.1301 8.0534 22.7581 8.42634 22.3277 8.85781L9.17686 22.0088C8.82275 22.3628 8.56835 22.617 8.35935 22.9047C7.94193 23.4792 7.66642 24.1444 7.55533 24.8458C7.4997 25.197 7.49979 25.5567 7.49991 26.0573L7.49992 27.1L7.49973 27.181C7.4987 27.4628 7.49744 27.8091 7.59781 28.118C7.79565 28.7269 8.27301 29.2043 8.88189 29.4021C9.19081 29.5025 9.53717 29.5012 9.81895 29.5002L9.89992 29.5L10.9426 29.5C11.4433 29.5001 11.8029 29.5002 12.1541 29.4446C12.8555 29.3335 13.5207 29.058 14.0952 28.6406C14.3829 28.4316 14.6371 28.1772 14.9911 27.8231L28.1421 14.6722C28.5736 14.2418 28.9465 13.8698 29.1645 13.442C29.6005 12.5863 29.6005 11.5737 29.1645 10.718C28.9465 10.2902 28.5736 9.91821 28.1421 9.48784L27.5121 8.85782C27.0817 8.42635 26.7097 8.0534 26.2819 7.8354ZM24.4659 9.61742C24.7512 9.47209 25.0887 9.47209 25.3739 9.61742C25.4795 9.6712 25.6112 9.78552 26.1927 10.367L26.6329 10.8072C27.2144 11.3887 27.3287 11.5205 27.3825 11.626C27.5278 11.9112 27.5278 12.2488 27.3825 12.534C27.3287 12.6395 27.2144 12.7713 26.6329 13.3528L25.7749 14.2108L22.7891 11.225L23.6471 10.367C24.2286 9.78552 24.3604 9.6712 24.4659 9.61742ZM21.3749 12.6392L10.6422 23.3719C10.2167 23.7974 10.0823 23.9359 9.97738 24.0803C9.74549 24.3995 9.59242 24.769 9.5307 25.1587C9.50279 25.3349 9.49992 25.528 9.49992 26.1296V27.1C9.49992 27.297 9.50027 27.4048 9.50455 27.483L9.50524 27.4947L9.5169 27.4954C9.59517 27.4997 9.7029 27.5 9.89992 27.5H10.8703C11.472 27.5 11.665 27.4971 11.8413 27.4692C12.2309 27.4075 12.6005 27.2545 12.9196 27.0226C13.064 26.9177 13.2025 26.7832 13.628 26.3577L24.3607 15.625L21.3749 12.6392Z" fill="#3B84BA"/>
</svg>
