<svg width="20" height="20" viewBox="0 0 20 20" fill="none" xmlns="http://www.w3.org/2000/svg">
<g clip-path="url(#clip0_304_262)">
<path d="M16.2114 8.67205C15.8878 8.67205 15.6255 8.9344 15.6255 9.258V17.852C15.6255 18.3905 15.1874 18.8286 14.6489 18.8286H2.1485C1.61001 18.8286 1.17191 18.3905 1.17191 17.852V5.35163C1.17191 4.81314 1.61001 4.37504 2.1485 4.37504H10.7425C11.0661 4.37504 11.3285 4.11268 11.3285 3.78908C11.3285 3.46548 11.0661 3.20312 10.7425 3.20312H2.1485C0.963819 3.20312 0 4.16694 0 5.35163V17.852C0 19.0367 0.963819 20.0005 2.1485 20.0005H14.6489C15.8336 20.0005 16.7974 19.0367 16.7974 17.852V9.258C16.7974 8.9344 16.535 8.67205 16.2114 8.67205Z" fill="#3B84BA"/>
<path d="M19.5997 1.50472L18.4948 0.399798C17.9618 -0.133266 17.0944 -0.133266 16.5612 0.399798L7.72218 9.2389C7.64038 9.3207 7.58464 9.42488 7.5619 9.53833L7.00943 12.3006C6.97103 12.4927 7.03114 12.6913 7.1697 12.8298C7.28068 12.9408 7.43018 13.0014 7.58401 13.0014C7.62226 13.0014 7.6607 12.9977 7.6989 12.9901L10.4611 12.4376C10.5746 12.4149 10.6788 12.3591 10.7606 12.2773L19.5997 3.43825C20.1327 2.90523 20.1328 2.03782 19.5997 1.50472ZM10.0574 11.3232L8.33099 11.6685L8.67631 9.94217L15.8707 2.74768L17.2518 4.12882L10.0574 11.3232ZM18.771 2.60959L18.0805 3.30016L16.6993 1.91902L17.3899 1.2285C17.466 1.15232 17.59 1.15228 17.6661 1.22846L18.771 2.33337C18.8472 2.40951 18.8472 2.53346 18.771 2.60959Z" fill="#3B84BA"/>
</g>
<defs>
<clipPath id="clip0_304_262">
<rect width="20" height="20" fill="white"/>
</clipPath>
</defs>
</svg>
