<svg width="1440" height="1024" viewBox="0 0 1440 1024" fill="none" xmlns="http://www.w3.org/2000/svg">
<g clip-path="url(#clip0_369_1790)">
<rect width="1440" height="1024" fill="#081A59"/>
<g opacity="0.7" filter="url(#filter0_f_369_1790)">
<ellipse cx="200" cy="451.5" rx="281" ry="289.5" fill="#123CCF"/>
</g>
<g opacity="0.8" filter="url(#filter1_f_369_1790)">
<ellipse cx="273" cy="741" rx="215" ry="149" transform="rotate(30.4895 273 741)" fill="#6121B3"/>
</g>
<g opacity="0.9" filter="url(#filter2_f_369_1790)">
<ellipse cx="977.87" cy="537.483" rx="215" ry="149" transform="rotate(30.4895 977.87 537.483)" fill="#6121B3"/>
</g>
<g opacity="0.7" filter="url(#filter3_f_369_1790)">
<ellipse cx="1117.32" cy="116.465" rx="215" ry="246.458" transform="rotate(30.4895 1117.32 116.465)" fill="#2142B3"/>
</g>
<g opacity="0.7" filter="url(#filter4_f_369_1790)">
<ellipse cx="463.543" cy="46.1594" rx="281.408" ry="246.458" transform="rotate(30.4895 463.543 46.1594)" fill="#4769E3"/>
</g>
<g opacity="0.7" filter="url(#filter5_f_369_1790)">
<ellipse cx="1240.05" cy="843.866" rx="324.285" ry="371.733" transform="rotate(30.4895 1240.05 843.866)" fill="#2142B3"/>
</g>
<g filter="url(#filter6_f_369_1790)">
<path d="M691.1 223.012C693.915 212.749 706.263 208.621 714.506 215.399C783.723 272.309 856.476 354.803 927.857 447.367C932.545 453.447 931.819 462.069 926.206 467.313L776.749 606.933C771.937 611.429 764.739 612.275 759.005 609.018L618.784 529.371C612.825 525.986 609.923 519.018 611.729 512.433L691.1 223.012Z" fill="#3B84BA"/>
<path d="M633.988 457.494C622.665 441.077 631.353 492.204 590.554 504.474C549.756 516.744 517.597 551.667 510.656 563.853M590.554 504.474C549.756 516.744 517.597 551.667 510.656 563.853" stroke="#3B84BA" stroke-width="15" stroke-linecap="round"/>
<path d="M604.332 409.083C593.008 392.667 601.696 443.794 560.898 456.064C520.1 468.334 487.941 503.257 481 515.443M560.898 456.064C520.1 468.334 487.941 503.257 481 515.443" stroke="#3B84BA" stroke-width="15" stroke-linecap="round"/>
<path d="M837.744 305.898C843.049 309.794 847.532 314.7 850.937 320.336L927.065 446.353C928.205 448.239 925.905 450.315 924.149 448.986L800.567 355.432C795.8 351.823 791.719 347.386 788.517 342.332L708.229 215.59C707.046 213.722 709.319 211.595 711.1 212.903L837.744 305.898Z" fill="#F19031"/>
<path d="M653.695 482.999L761.601 601.096C763.112 602.75 761.178 605.262 759.196 604.22L616.101 528.971C606.479 523.912 598.77 515.847 594.142 506.001L533.673 377.352C532.738 375.363 535.225 373.537 536.837 375.027L653.695 482.999Z" fill="#3B84BA"/>
<path d="M694.561 216.236C699.152 212.069 706.383 213.043 709.706 218.275L786.684 339.472C790.554 345.565 789.539 353.557 784.267 358.491L617.849 514.266C610.633 521.02 598.983 519.069 594.364 510.333L527.233 383.38C524.027 377.317 525.338 369.847 530.417 365.236L694.561 216.236Z" fill="white"/>
<path d="M583.398 307.252C537.607 334.959 535.43 375.362 538.716 396.499" stroke="#F19031" stroke-width="15" stroke-linecap="round"/>
<path d="M638.794 243.172C637.718 254.508 650.612 247.024 658.389 257.076C666.166 267.128 656.59 277.311 666.956 279.574C674.164 274.574 673.704 261.253 665.927 251.201C658.15 241.149 646.003 237.554 638.794 243.172Z" fill="#EC8219"/>
<path d="M614.211 331.916C625.229 334.789 613.78 344.339 620.559 355.089C627.338 365.839 640.186 360.332 638.761 370.846C631.593 375.904 612.872 373.849 606.093 363.099C599.313 352.349 606.463 336.764 614.211 331.916Z" fill="#EC8219"/>
<ellipse cx="33.3008" cy="32.6822" rx="33.3008" ry="32.6822" transform="matrix(0.66351 0.748167 -0.749869 0.661587 627.737 244.211)" fill="#D2E7F4"/>
<ellipse cx="15.6709" cy="14.8555" rx="15.6709" ry="14.8555" transform="matrix(0.66351 0.748167 -0.749869 0.661587 625.752 266.496)" fill="#3B84BA"/>
<ellipse cx="33.3008" cy="32.6822" rx="33.3008" ry="32.6822" transform="matrix(0.66351 0.748167 -0.749869 0.661587 686.268 329.865)" fill="#D2E7F4"/>
<ellipse cx="15.1812" cy="14.8555" rx="15.1812" ry="14.8555" transform="matrix(0.66351 0.748167 -0.749869 0.661587 685.315 355.434)" fill="#3B84BA"/>
<path d="M717.271 462.462C628.605 487.139 573.223 453.15 556.616 433.071" stroke="#F19031" stroke-width="15" stroke-linecap="round"/>
<path d="M727.391 373.613C716.63 370.906 727.086 361.377 719.945 350.868C712.803 340.359 700.769 345.923 701.53 335.556C708.129 330.496 720.3 335.278 727.442 345.788C734.583 356.297 734.56 368.754 727.391 373.613Z" fill="#EC8219"/>
<g filter="url(#filter7_f_369_1790)">
<rect x="873" y="138" width="21" height="49" rx="7" fill="white"/>
<rect x="807" y="225" width="21" height="49" rx="7" transform="rotate(-90 807 225)" fill="white"/>
<rect x="836.945" y="276.135" width="21.4737" height="48.9868" rx="7" transform="rotate(-135 836.945 276.135)" fill="white"/>
<rect width="21.4737" height="48.9868" rx="7" transform="matrix(0.707107 -0.707107 -0.707107 -0.707107 929.953 276.135)" fill="white"/>
<rect x="873" y="242" width="21" height="49" rx="7" fill="white"/>
<rect x="911" y="225" width="21" height="49" rx="7" transform="rotate(-90 911 225)" fill="white"/>
<rect x="910.5" y="202.586" width="21.4737" height="48.9868" rx="7" transform="rotate(-135 910.5 202.586)" fill="white"/>
<rect width="21.4737" height="48.9868" rx="7" transform="matrix(0.707107 -0.707107 -0.707107 -0.707107 856.406 202.586)" fill="white"/>
</g>
</g>
<path d="M582.352 759.384C579.792 759.384 577.408 758.952 575.2 758.088C573.024 757.224 571.136 756.024 569.536 754.488C567.936 752.92 566.688 751.096 565.792 749.016C564.896 746.936 564.448 744.664 564.448 742.2C564.448 739.736 564.896 737.464 565.792 735.384C566.688 733.304 567.936 731.496 569.536 729.96C571.136 728.392 573.024 727.176 575.2 726.312C577.376 725.448 579.76 725.016 582.352 725.016C584.912 725.016 587.264 725.448 589.408 726.312C591.584 727.144 593.472 728.344 595.072 729.912C596.704 731.448 597.952 733.256 598.816 735.336C599.712 737.416 600.16 739.704 600.16 742.2C600.16 744.696 599.712 746.984 598.816 749.064C597.952 751.144 596.704 752.968 595.072 754.536C593.472 756.072 591.584 757.272 589.408 758.136C587.264 758.968 584.912 759.384 582.352 759.384ZM582.352 755.112C584.208 755.112 585.92 754.792 587.488 754.152C589.088 753.512 590.464 752.616 591.616 751.464C592.8 750.28 593.712 748.904 594.352 747.336C595.024 745.768 595.36 744.056 595.36 742.2C595.36 740.344 595.024 738.632 594.352 737.064C593.712 735.496 592.8 734.136 591.616 732.984C590.464 731.8 589.088 730.888 587.488 730.248C585.92 729.608 584.208 729.288 582.352 729.288C580.464 729.288 578.72 729.608 577.12 730.248C575.552 730.888 574.176 731.8 572.992 732.984C571.808 734.136 570.88 735.496 570.208 737.064C569.568 738.632 569.248 740.344 569.248 742.2C569.248 744.056 569.568 745.768 570.208 747.336C570.88 748.904 571.808 750.28 572.992 751.464C574.176 752.616 575.552 753.512 577.12 754.152C578.72 754.792 580.464 755.112 582.352 755.112ZM624.048 754.968L622.992 756.168V733.56H627.6V756.168L626.448 754.968H639.888L638.784 756.168V733.56H643.392V759H607.152V733.56H611.76V756.168L610.656 754.968H624.048ZM652.339 759V733.56H656.947V752.088L672.547 733.56H676.723V759H672.115V740.472L656.563 759H652.339ZM697.427 759.384C695.315 759.384 693.443 759.048 691.811 758.376C690.211 757.704 688.835 756.712 687.683 755.4C686.531 754.056 685.651 752.376 685.043 750.36C684.467 748.312 684.179 745.912 684.179 743.16C684.179 740.984 684.371 739.032 684.755 737.304C685.139 735.576 685.683 734.04 686.387 732.696C687.123 731.352 688.019 730.184 689.075 729.192C690.163 728.2 691.379 727.384 692.723 726.744C694.099 726.072 695.603 725.56 697.235 725.208L708.851 722.616L709.523 726.888L698.819 729.192C698.179 729.32 697.411 729.512 696.515 729.768C695.619 730.024 694.707 730.424 693.779 730.968C692.851 731.48 691.987 732.2 691.187 733.128C690.387 734.056 689.747 735.272 689.267 736.776C688.787 738.248 688.547 740.072 688.547 742.248C688.547 742.856 688.563 743.32 688.595 743.64C688.627 743.96 688.659 744.28 688.691 744.6C688.755 744.92 688.803 745.4 688.835 746.04L686.915 744.072C687.427 742.312 688.243 740.776 689.363 739.464C690.483 738.152 691.827 737.144 693.395 736.44C694.995 735.704 696.739 735.336 698.627 735.336C700.995 735.336 703.091 735.848 704.915 736.872C706.771 737.896 708.227 739.304 709.283 741.096C710.339 742.888 710.867 744.936 710.867 747.24C710.867 749.576 710.307 751.672 709.187 753.528C708.099 755.352 706.547 756.792 704.531 757.848C702.515 758.872 700.147 759.384 697.427 759.384ZM697.859 755.544C699.491 755.544 700.931 755.192 702.179 754.488C703.427 753.752 704.403 752.776 705.107 751.56C705.811 750.312 706.163 748.92 706.163 747.384C706.163 745.848 705.811 744.488 705.107 743.304C704.403 742.12 703.427 741.192 702.179 740.52C700.931 739.816 699.459 739.464 697.763 739.464C696.163 739.464 694.723 739.8 693.443 740.472C692.163 741.112 691.171 742.024 690.467 743.208C689.763 744.36 689.411 745.704 689.411 747.24C689.411 748.776 689.763 750.184 690.467 751.464C691.203 752.712 692.195 753.704 693.443 754.44C694.723 755.176 696.195 755.544 697.859 755.544ZM735.88 759L726.04 746.616L729.832 744.312L741.304 759H735.88ZM717.448 759V733.56H722.056V759H717.448ZM720.664 748.248V744.312H729.064V748.248H720.664ZM730.216 746.808L725.944 746.232L735.688 733.56H740.632L730.216 746.808ZM761.267 759V753.624L761.027 752.616V743.448C761.027 741.496 760.451 739.992 759.299 738.936C758.179 737.848 756.483 737.304 754.211 737.304C752.707 737.304 751.235 737.56 749.795 738.072C748.355 738.552 747.139 739.208 746.147 740.04L744.227 736.584C745.539 735.528 747.107 734.728 748.931 734.184C750.787 733.608 752.723 733.32 754.739 733.32C758.227 733.32 760.915 734.168 762.803 735.864C764.691 737.56 765.635 740.152 765.635 743.64V759H761.267ZM752.915 759.288C751.027 759.288 749.363 758.968 747.923 758.328C746.515 757.688 745.427 756.808 744.659 755.688C743.891 754.536 743.507 753.24 743.507 751.8C743.507 750.424 743.827 749.176 744.467 748.056C745.139 746.936 746.211 746.04 747.683 745.368C749.187 744.696 751.203 744.36 753.731 744.36H761.795V747.672H753.923C751.619 747.672 750.067 748.056 749.267 748.824C748.467 749.592 748.067 750.52 748.067 751.608C748.067 752.856 748.563 753.864 749.555 754.632C750.547 755.368 751.923 755.736 753.683 755.736C755.411 755.736 756.915 755.352 758.195 754.584C759.507 753.816 760.451 752.696 761.027 751.224L761.939 754.392C761.331 755.896 760.259 757.096 758.723 757.992C757.187 758.856 755.251 759.288 752.915 759.288ZM784.183 750.744V747.384L801.367 725.4H806.551L789.511 747.384L787.063 746.616H813.895V750.744H784.183ZM802.855 759V750.744L802.999 746.616V739.32H807.511V759H802.855ZM830.501 759.384C827.877 759.384 825.525 758.712 823.445 757.368C821.397 756.024 819.765 754.072 818.549 751.512C817.365 748.952 816.773 745.848 816.773 742.2C816.773 738.552 817.365 735.448 818.549 732.888C819.765 730.328 821.397 728.376 823.445 727.032C825.525 725.688 827.877 725.016 830.501 725.016C833.093 725.016 835.429 725.688 837.509 727.032C839.589 728.376 841.221 730.328 842.405 732.888C843.589 735.448 844.181 738.552 844.181 742.2C844.181 745.848 843.589 748.952 842.405 751.512C841.221 754.072 839.589 756.024 837.509 757.368C835.429 758.712 833.093 759.384 830.501 759.384ZM830.501 755.112C832.261 755.112 833.797 754.632 835.109 753.672C836.453 752.712 837.493 751.272 838.229 749.352C838.997 747.432 839.381 745.048 839.381 742.2C839.381 739.352 838.997 736.968 838.229 735.048C837.493 733.128 836.453 731.688 835.109 730.728C833.797 729.768 832.261 729.288 830.501 729.288C828.741 729.288 827.189 729.768 825.845 730.728C824.501 731.688 823.445 733.128 822.677 735.048C821.941 736.968 821.573 739.352 821.573 742.2C821.573 745.048 821.941 747.432 822.677 749.352C823.445 751.272 824.501 752.712 825.845 753.672C827.189 754.632 828.741 755.112 830.501 755.112ZM848.308 750.744V747.384L865.492 725.4H870.676L853.636 747.384L851.188 746.616H878.02V750.744H848.308ZM866.98 759V750.744L867.124 746.616V739.32H871.636V759H866.98Z" fill="white"/>
<path d="M560.072 806.12C559.019 806.12 558.039 805.947 557.132 805.6C556.239 805.24 555.459 804.74 554.792 804.1C554.139 803.447 553.626 802.693 553.252 801.84C552.892 800.973 552.712 800.027 552.712 799C552.712 797.973 552.892 797.033 553.252 796.18C553.626 795.313 554.139 794.56 554.792 793.92C555.459 793.267 556.239 792.767 557.132 792.42C558.026 792.06 559.006 791.88 560.072 791.88C561.126 791.88 562.099 792.06 562.992 792.42C563.886 792.767 564.659 793.26 565.312 793.9C565.979 794.54 566.492 795.293 566.852 796.16C567.226 797.027 567.412 797.973 567.412 799C567.412 800.027 567.226 800.973 566.852 801.84C566.492 802.707 565.979 803.46 565.312 804.1C564.659 804.74 563.886 805.24 562.992 805.6C562.099 805.947 561.126 806.12 560.072 806.12ZM560.072 804.8C560.912 804.8 561.686 804.66 562.392 804.38C563.112 804.087 563.732 803.68 564.252 803.16C564.786 802.627 565.199 802.013 565.492 801.32C565.786 800.613 565.932 799.84 565.932 799C565.932 798.16 565.786 797.393 565.492 796.7C565.199 795.993 564.786 795.38 564.252 794.86C563.732 794.327 563.112 793.92 562.392 793.64C561.686 793.347 560.912 793.2 560.072 793.2C559.232 793.2 558.452 793.347 557.732 793.64C557.012 793.92 556.386 794.327 555.852 794.86C555.332 795.38 554.919 795.993 554.612 796.7C554.319 797.393 554.172 798.16 554.172 799C554.172 799.827 554.319 800.593 554.612 801.3C554.919 802.007 555.332 802.627 555.852 803.16C556.386 803.68 557.012 804.087 557.732 804.38C558.452 804.66 559.232 804.8 560.072 804.8ZM570.604 806V795.5H580.044V806H578.624V796.36L578.984 796.74H571.664L572.024 796.36V806H570.604ZM584.081 806V795.5H585.501V803.84L592.521 795.5H593.781V806H592.361V797.64L585.361 806H584.081ZM602.25 806.1C601.21 806.1 600.277 805.873 599.45 805.42C598.637 804.953 597.997 804.32 597.53 803.52C597.063 802.707 596.83 801.78 596.83 800.74C596.83 799.687 597.063 798.76 597.53 797.96C597.997 797.16 598.637 796.533 599.45 796.08C600.277 795.627 601.21 795.4 602.25 795.4C603.143 795.4 603.95 795.573 604.67 795.92C605.39 796.267 605.957 796.787 606.37 797.48L605.31 798.2C604.95 797.667 604.503 797.273 603.97 797.02C603.437 796.767 602.857 796.64 602.23 796.64C601.483 796.64 600.81 796.813 600.21 797.16C599.61 797.493 599.137 797.967 598.79 798.58C598.443 799.193 598.27 799.913 598.27 800.74C598.27 801.567 598.443 802.287 598.79 802.9C599.137 803.513 599.61 803.993 600.21 804.34C600.81 804.673 601.483 804.84 602.23 804.84C602.857 804.84 603.437 804.713 603.97 804.46C604.503 804.207 604.95 803.82 605.31 803.3L606.37 804.02C605.957 804.7 605.39 805.22 604.67 805.58C603.95 805.927 603.143 806.1 602.25 806.1ZM615.64 806V803.68L615.58 803.3V799.42C615.58 798.527 615.326 797.84 614.82 797.36C614.326 796.88 613.586 796.64 612.6 796.64C611.92 796.64 611.273 796.753 610.66 796.98C610.046 797.207 609.526 797.507 609.1 797.88L608.46 796.82C608.993 796.367 609.633 796.02 610.38 795.78C611.126 795.527 611.913 795.4 612.74 795.4C614.1 795.4 615.146 795.74 615.88 796.42C616.626 797.087 617 798.107 617 799.48V806H615.64ZM612.02 806.1C611.233 806.1 610.546 805.973 609.96 805.72C609.386 805.453 608.946 805.093 608.64 804.64C608.333 804.173 608.18 803.64 608.18 803.04C608.18 802.493 608.306 802 608.56 801.56C608.826 801.107 609.253 800.747 609.84 800.48C610.44 800.2 611.24 800.06 612.24 800.06H615.86V801.12H612.28C611.266 801.12 610.56 801.3 610.16 801.66C609.773 802.02 609.58 802.467 609.58 803C609.58 803.6 609.813 804.08 610.28 804.44C610.746 804.8 611.4 804.98 612.24 804.98C613.04 804.98 613.726 804.8 614.3 804.44C614.886 804.067 615.313 803.533 615.58 802.84L615.9 803.82C615.633 804.513 615.166 805.067 614.5 805.48C613.846 805.893 613.02 806.1 612.02 806.1ZM620.78 806V795.5H622.2V800.14H628.82V795.5H630.24V806H628.82V801.36H622.2V806H620.78ZM634.276 806V795.5H635.696V803.84L642.716 795.5H643.976V806H642.556V797.64L635.556 806H634.276ZM652.545 806.1C651.452 806.1 650.492 805.873 649.665 805.42C648.839 804.953 648.192 804.32 647.725 803.52C647.259 802.707 647.025 801.78 647.025 800.74C647.025 799.7 647.245 798.78 647.685 797.98C648.139 797.18 648.752 796.553 649.525 796.1C650.312 795.633 651.192 795.4 652.165 795.4C653.152 795.4 654.025 795.627 654.785 796.08C655.559 796.52 656.165 797.147 656.605 797.96C657.045 798.76 657.265 799.687 657.265 800.74C657.265 800.807 657.259 800.88 657.245 800.96C657.245 801.027 657.245 801.1 657.245 801.18H648.105V800.12H656.485L655.925 800.54C655.925 799.78 655.759 799.107 655.425 798.52C655.105 797.92 654.665 797.453 654.105 797.12C653.545 796.787 652.899 796.62 652.165 796.62C651.445 796.62 650.799 796.787 650.225 797.12C649.652 797.453 649.205 797.92 648.885 798.52C648.565 799.12 648.405 799.807 648.405 800.58V800.8C648.405 801.6 648.579 802.307 648.925 802.92C649.285 803.52 649.779 803.993 650.405 804.34C651.045 804.673 651.772 804.84 652.585 804.84C653.225 804.84 653.819 804.727 654.365 804.5C654.925 804.273 655.405 803.927 655.805 803.46L656.605 804.38C656.139 804.94 655.552 805.367 654.845 805.66C654.152 805.953 653.385 806.1 652.545 806.1ZM665.643 806V795.5H675.083V806H673.663V796.36L674.023 796.74H666.703L667.063 796.36V806H665.643ZM684.54 806.1C683.633 806.1 682.813 805.893 682.08 805.48C681.346 805.053 680.76 804.447 680.32 803.66C679.893 802.86 679.68 801.887 679.68 800.74C679.68 799.593 679.893 798.627 680.32 797.84C680.746 797.04 681.326 796.433 682.06 796.02C682.793 795.607 683.62 795.4 684.54 795.4C685.54 795.4 686.433 795.627 687.22 796.08C688.02 796.52 688.646 797.147 689.1 797.96C689.553 798.76 689.78 799.687 689.78 800.74C689.78 801.807 689.553 802.74 689.1 803.54C688.646 804.34 688.02 804.967 687.22 805.42C686.433 805.873 685.54 806.1 684.54 806.1ZM679.12 809.88V795.5H680.48V798.66L680.34 800.76L680.54 802.88V809.88H679.12ZM684.44 804.84C685.186 804.84 685.853 804.673 686.44 804.34C687.026 803.993 687.493 803.513 687.84 802.9C688.186 802.273 688.36 801.553 688.36 800.74C688.36 799.927 688.186 799.213 687.84 798.6C687.493 797.987 687.026 797.507 686.44 797.16C685.853 796.813 685.186 796.64 684.44 796.64C683.693 796.64 683.02 796.813 682.42 797.16C681.833 797.507 681.366 797.987 681.02 798.6C680.686 799.213 680.52 799.927 680.52 800.74C680.52 801.553 680.686 802.273 681.02 802.9C681.366 803.513 681.833 803.993 682.42 804.34C683.02 804.673 683.693 804.84 684.44 804.84ZM697.151 806.1C696.137 806.1 695.224 805.873 694.411 805.42C693.611 804.953 692.977 804.32 692.511 803.52C692.044 802.707 691.811 801.78 691.811 800.74C691.811 799.687 692.044 798.76 692.511 797.96C692.977 797.16 693.611 796.533 694.411 796.08C695.211 795.627 696.124 795.4 697.151 795.4C698.191 795.4 699.111 795.627 699.911 796.08C700.724 796.533 701.357 797.16 701.811 797.96C702.277 798.76 702.511 799.687 702.511 800.74C702.511 801.78 702.277 802.707 701.811 803.52C701.357 804.32 700.724 804.953 699.911 805.42C699.097 805.873 698.177 806.1 697.151 806.1ZM697.151 804.84C697.911 804.84 698.584 804.673 699.171 804.34C699.757 803.993 700.217 803.513 700.551 802.9C700.897 802.273 701.071 801.553 701.071 800.74C701.071 799.913 700.897 799.193 700.551 798.58C700.217 797.967 699.757 797.493 699.171 797.16C698.584 796.813 697.917 796.64 697.171 796.64C696.424 796.64 695.757 796.813 695.171 797.16C694.584 797.493 694.117 797.967 693.771 798.58C693.424 799.193 693.251 799.913 693.251 800.74C693.251 801.553 693.424 802.273 693.771 802.9C694.117 803.513 694.584 803.993 695.171 804.34C695.757 804.673 696.417 804.84 697.151 804.84ZM710.265 806.12C709.412 806.12 708.652 805.98 707.985 805.7C707.332 805.42 706.772 804.993 706.305 804.42C705.839 803.847 705.485 803.14 705.245 802.3C705.005 801.447 704.885 800.46 704.885 799.34C704.885 798.34 704.979 797.467 705.165 796.72C705.352 795.96 705.612 795.307 705.945 794.76C706.279 794.213 706.665 793.753 707.105 793.38C707.559 792.993 708.045 792.687 708.565 792.46C709.099 792.22 709.645 792.04 710.205 791.92L714.925 790.82L715.165 792.14L710.725 793.14C710.445 793.207 710.105 793.3 709.705 793.42C709.319 793.54 708.919 793.72 708.505 793.96C708.105 794.2 707.732 794.533 707.385 794.96C707.039 795.387 706.759 795.94 706.545 796.62C706.345 797.287 706.245 798.12 706.245 799.12C706.245 799.333 706.252 799.507 706.265 799.64C706.279 799.76 706.292 799.893 706.305 800.04C706.332 800.173 706.352 800.373 706.365 800.64L705.745 800.12C705.892 799.307 706.192 798.6 706.645 798C707.099 797.387 707.665 796.913 708.345 796.58C709.039 796.233 709.805 796.06 710.645 796.06C711.619 796.06 712.485 796.273 713.245 796.7C714.005 797.113 714.599 797.693 715.025 798.44C715.465 799.187 715.685 800.053 715.685 801.04C715.685 802.013 715.459 802.887 715.005 803.66C714.565 804.433 713.939 805.04 713.125 805.48C712.312 805.907 711.359 806.12 710.265 806.12ZM710.425 804.94C711.172 804.94 711.832 804.773 712.405 804.44C712.979 804.093 713.425 803.627 713.745 803.04C714.079 802.453 714.245 801.793 714.245 801.06C714.245 800.34 714.079 799.7 713.745 799.14C713.425 798.58 712.979 798.14 712.405 797.82C711.832 797.487 711.165 797.32 710.405 797.32C709.659 797.32 708.999 797.48 708.425 797.8C707.852 798.107 707.399 798.54 707.065 799.1C706.745 799.66 706.585 800.307 706.585 801.04C706.585 801.773 706.745 802.433 707.065 803.02C707.399 803.607 707.852 804.073 708.425 804.42C709.012 804.767 709.679 804.94 710.425 804.94ZM716.75 805.98L716.85 804.76C716.944 804.773 717.03 804.793 717.11 804.82C717.204 804.833 717.284 804.84 717.35 804.84C717.777 804.84 718.117 804.68 718.37 804.36C718.637 804.04 718.837 803.613 718.97 803.08C719.104 802.547 719.197 801.947 719.25 801.28C719.304 800.6 719.35 799.92 719.39 799.24L719.57 795.5H727.27V806H725.85V796.32L726.21 796.74H720.49L720.83 796.3L720.67 799.34C720.63 800.247 720.557 801.113 720.45 801.94C720.357 802.767 720.204 803.493 719.99 804.12C719.79 804.747 719.51 805.24 719.15 805.6C718.79 805.947 718.33 806.12 717.77 806.12C717.61 806.12 717.444 806.107 717.27 806.08C717.11 806.053 716.937 806.02 716.75 805.98ZM735.807 806.1C734.714 806.1 733.754 805.873 732.927 805.42C732.1 804.953 731.454 804.32 730.987 803.52C730.52 802.707 730.287 801.78 730.287 800.74C730.287 799.7 730.507 798.78 730.947 797.98C731.4 797.18 732.014 796.553 732.787 796.1C733.574 795.633 734.454 795.4 735.427 795.4C736.414 795.4 737.287 795.627 738.047 796.08C738.82 796.52 739.427 797.147 739.867 797.96C740.307 798.76 740.527 799.687 740.527 800.74C740.527 800.807 740.52 800.88 740.507 800.96C740.507 801.027 740.507 801.1 740.507 801.18H731.367V800.12H739.747L739.187 800.54C739.187 799.78 739.02 799.107 738.687 798.52C738.367 797.92 737.927 797.453 737.367 797.12C736.807 796.787 736.16 796.62 735.427 796.62C734.707 796.62 734.06 796.787 733.487 797.12C732.914 797.453 732.467 797.92 732.147 798.52C731.827 799.12 731.667 799.807 731.667 800.58V800.8C731.667 801.6 731.84 802.307 732.187 802.92C732.547 803.52 733.04 803.993 733.667 804.34C734.307 804.673 735.034 804.84 735.847 804.84C736.487 804.84 737.08 804.727 737.627 804.5C738.187 804.273 738.667 803.927 739.067 803.46L739.867 804.38C739.4 804.94 738.814 805.367 738.107 805.66C737.414 805.953 736.647 806.1 735.807 806.1ZM743.67 806V795.5H745.11L749.87 803.56H749.27L754.11 795.5H755.43V806H754.13V797.12L754.39 797.24L749.87 804.72H749.23L744.67 797.16L744.97 797.1V806H743.67ZM769.711 806V795.5H771.131V806H769.711ZM763.891 799.2C765.211 799.213 766.218 799.507 766.911 800.08C767.605 800.653 767.951 801.48 767.951 802.56C767.951 803.68 767.578 804.54 766.831 805.14C766.085 805.74 765.018 806.033 763.631 806.02L759.471 806V795.5H760.891V799.16L763.891 799.2ZM763.531 804.94C764.518 804.953 765.258 804.76 765.751 804.36C766.258 803.947 766.511 803.347 766.511 802.56C766.511 801.773 766.265 801.2 765.771 800.84C765.278 800.467 764.531 800.273 763.531 800.26L760.891 800.22V804.9L763.531 804.94ZM774.274 808.92L775.154 805.22L775.314 806.08C775.008 806.08 774.748 805.98 774.534 805.78C774.334 805.58 774.234 805.32 774.234 805C774.234 804.68 774.334 804.42 774.534 804.22C774.748 804.02 775.001 803.92 775.294 803.92C775.601 803.92 775.848 804.027 776.034 804.24C776.234 804.453 776.334 804.707 776.334 805C776.334 805.107 776.328 805.213 776.314 805.32C776.301 805.427 776.274 805.547 776.234 805.68C776.194 805.813 776.141 805.973 776.074 806.16L775.234 808.92H774.274ZM789.147 806.1C788.054 806.1 787.094 805.873 786.267 805.42C785.44 804.953 784.794 804.32 784.327 803.52C783.86 802.707 783.627 801.78 783.627 800.74C783.627 799.7 783.847 798.78 784.287 797.98C784.74 797.18 785.354 796.553 786.127 796.1C786.914 795.633 787.794 795.4 788.767 795.4C789.754 795.4 790.627 795.627 791.387 796.08C792.16 796.52 792.767 797.147 793.207 797.96C793.647 798.76 793.867 799.687 793.867 800.74C793.867 800.807 793.86 800.88 793.847 800.96C793.847 801.027 793.847 801.1 793.847 801.18H784.707V800.12H793.087L792.527 800.54C792.527 799.78 792.36 799.107 792.027 798.52C791.707 797.92 791.267 797.453 790.707 797.12C790.147 796.787 789.5 796.62 788.767 796.62C788.047 796.62 787.4 796.787 786.827 797.12C786.254 797.453 785.807 797.92 785.487 798.52C785.167 799.12 785.007 799.807 785.007 800.58V800.8C785.007 801.6 785.18 802.307 785.527 802.92C785.887 803.52 786.38 803.993 787.007 804.34C787.647 804.673 788.374 804.84 789.187 804.84C789.827 804.84 790.42 804.727 790.967 804.5C791.527 804.273 792.007 803.927 792.407 803.46L793.207 804.38C792.74 804.94 792.154 805.367 791.447 805.66C790.754 805.953 789.987 806.1 789.147 806.1ZM801.41 806.1C800.37 806.1 799.437 805.873 798.61 805.42C797.797 804.953 797.157 804.32 796.69 803.52C796.224 802.707 795.99 801.78 795.99 800.74C795.99 799.687 796.224 798.76 796.69 797.96C797.157 797.16 797.797 796.533 798.61 796.08C799.437 795.627 800.37 795.4 801.41 795.4C802.304 795.4 803.11 795.573 803.83 795.92C804.55 796.267 805.117 796.787 805.53 797.48L804.47 798.2C804.11 797.667 803.664 797.273 803.13 797.02C802.597 796.767 802.017 796.64 801.39 796.64C800.644 796.64 799.97 796.813 799.37 797.16C798.77 797.493 798.297 797.967 797.95 798.58C797.604 799.193 797.43 799.913 797.43 800.74C797.43 801.567 797.604 802.287 797.95 802.9C798.297 803.513 798.77 803.993 799.37 804.34C799.97 804.673 800.644 804.84 801.39 804.84C802.017 804.84 802.597 804.713 803.13 804.46C803.664 804.207 804.11 803.82 804.47 803.3L805.53 804.02C805.117 804.7 804.55 805.22 803.83 805.58C803.11 805.927 802.304 806.1 801.41 806.1ZM805.989 805.98L806.089 804.76C806.182 804.773 806.269 804.793 806.349 804.82C806.442 804.833 806.522 804.84 806.589 804.84C807.015 804.84 807.355 804.68 807.609 804.36C807.875 804.04 808.075 803.613 808.209 803.08C808.342 802.547 808.435 801.947 808.489 801.28C808.542 800.6 808.589 799.92 808.629 799.24L808.809 795.5H816.509V806H815.089V796.32L815.449 796.74H809.729L810.069 796.3L809.909 799.34C809.869 800.247 809.795 801.113 809.689 801.94C809.595 802.767 809.442 803.493 809.229 804.12C809.029 804.747 808.749 805.24 808.389 805.6C808.029 805.947 807.569 806.12 807.009 806.12C806.849 806.12 806.682 806.107 806.509 806.08C806.349 806.053 806.175 806.02 805.989 805.98ZM820.545 806V795.5H821.965V803.84L828.985 795.5H830.245V806H828.825V797.64L821.825 806H820.545ZM839.549 806V795.5H840.969V800.14H847.589V795.5H849.009V806H847.589V801.36H840.969V806H839.549ZM859.565 806V803.68L859.505 803.3V799.42C859.505 798.527 859.252 797.84 858.745 797.36C858.252 796.88 857.512 796.64 856.525 796.64C855.845 796.64 855.199 796.753 854.585 796.98C853.972 797.207 853.452 797.507 853.025 797.88L852.385 796.82C852.919 796.367 853.559 796.02 854.305 795.78C855.052 795.527 855.839 795.4 856.665 795.4C858.025 795.4 859.072 795.74 859.805 796.42C860.552 797.087 860.925 798.107 860.925 799.48V806H859.565ZM855.945 806.1C855.159 806.1 854.472 805.973 853.885 805.72C853.312 805.453 852.872 805.093 852.565 804.64C852.259 804.173 852.105 803.64 852.105 803.04C852.105 802.493 852.232 802 852.485 801.56C852.752 801.107 853.179 800.747 853.765 800.48C854.365 800.2 855.165 800.06 856.165 800.06H859.785V801.12H856.205C855.192 801.12 854.485 801.3 854.085 801.66C853.699 802.02 853.505 802.467 853.505 803C853.505 803.6 853.739 804.08 854.205 804.44C854.672 804.8 855.325 804.98 856.165 804.98C856.965 804.98 857.652 804.8 858.225 804.44C858.812 804.067 859.239 803.533 859.505 802.84L859.825 803.82C859.559 804.513 859.092 805.067 858.425 805.48C857.772 805.893 856.945 806.1 855.945 806.1ZM871.906 805.32V796.74H866.846L866.726 799.08C866.699 799.787 866.652 800.48 866.586 801.16C866.532 801.84 866.432 802.467 866.286 803.04C866.152 803.6 865.959 804.06 865.706 804.42C865.452 804.767 865.126 804.967 864.726 805.02L863.306 804.76C863.719 804.773 864.059 804.627 864.326 804.32C864.592 804 864.799 803.567 864.946 803.02C865.092 802.473 865.199 801.853 865.266 801.16C865.332 800.453 865.386 799.733 865.426 799L865.566 795.5H873.326V805.32H871.906ZM862.866 808.54V804.76H874.966V808.54H873.626V806H864.206V808.54H862.866ZM882.053 806.1C881.04 806.1 880.126 805.873 879.313 805.42C878.513 804.953 877.88 804.32 877.413 803.52C876.946 802.707 876.713 801.78 876.713 800.74C876.713 799.687 876.946 798.76 877.413 797.96C877.88 797.16 878.513 796.533 879.313 796.08C880.113 795.627 881.026 795.4 882.053 795.4C883.093 795.4 884.013 795.627 884.813 796.08C885.626 796.533 886.26 797.16 886.713 797.96C887.18 798.76 887.413 799.687 887.413 800.74C887.413 801.78 887.18 802.707 886.713 803.52C886.26 804.32 885.626 804.953 884.813 805.42C884 805.873 883.08 806.1 882.053 806.1ZM882.053 804.84C882.813 804.84 883.486 804.673 884.073 804.34C884.66 803.993 885.12 803.513 885.453 802.9C885.8 802.273 885.973 801.553 885.973 800.74C885.973 799.913 885.8 799.193 885.453 798.58C885.12 797.967 884.66 797.493 884.073 797.16C883.486 796.813 882.82 796.64 882.073 796.64C881.326 796.64 880.66 796.813 880.073 797.16C879.486 797.493 879.02 797.967 878.673 798.58C878.326 799.193 878.153 799.913 878.153 800.74C878.153 801.553 878.326 802.273 878.673 802.9C879.02 803.513 879.486 803.993 880.073 804.34C880.66 804.673 881.32 804.84 882.053 804.84Z" fill="white"/>
<path d="M152 118.244L155.542 128.241C155.744 128.809 156.191 129.256 156.759 129.458L166.756 133L156.759 136.542C156.191 136.744 155.744 137.191 155.542 137.759L152 147.756L148.458 137.759C148.256 137.191 147.809 136.744 147.241 136.542L137.244 133L147.241 129.458C147.809 129.256 148.256 128.809 148.458 128.241L152 118.244Z" fill="white" stroke="white" stroke-width="2"/>
<path d="M181.429 133C181.429 152.504 178.039 170.114 172.597 182.811C169.876 189.161 166.661 194.236 163.142 197.709C159.627 201.177 155.863 203 152 203C148.137 203 144.373 201.177 140.859 197.709C137.34 194.236 134.125 189.161 131.403 182.811C125.962 170.114 122.572 152.504 122.572 133C122.572 113.496 125.962 95.886 131.403 83.1893C134.125 76.8392 137.34 71.7642 140.859 68.2913C144.373 64.8226 148.137 63 152 63C155.863 63 159.627 64.8226 163.142 68.2913C166.661 71.7642 169.876 76.8392 172.597 83.1893C178.039 95.886 181.429 113.496 181.429 133Z" stroke="white" stroke-width="2"/>
<path d="M152 162.428C132.496 162.428 114.886 159.038 102.189 153.597C95.8392 150.875 90.7642 147.661 87.2913 144.142C83.8226 140.627 82 136.863 82 133C82 129.137 83.8226 125.373 87.2913 121.858C90.7642 118.339 95.8392 115.124 102.189 112.403C114.886 106.961 132.496 103.571 152 103.571C171.504 103.571 189.114 106.961 201.811 112.403C208.161 115.124 213.236 118.339 216.709 121.858C220.177 125.373 222 129.137 222 133C222 136.863 220.177 140.627 216.709 144.142C213.236 147.661 208.161 150.875 201.811 153.597C189.114 159.038 171.504 162.428 152 162.428Z" stroke="white" stroke-width="2"/>
<path d="M1188 647.244L1191.54 657.241C1191.74 657.809 1192.19 658.256 1192.76 658.458L1202.76 662L1192.76 665.542C1192.19 665.744 1191.74 666.191 1191.54 666.759L1188 676.756L1184.46 666.759C1184.26 666.191 1183.81 665.744 1183.24 665.542L1173.24 662L1183.24 658.458C1183.81 658.256 1184.26 657.809 1184.46 657.241L1188 647.244Z" fill="white" stroke="white" stroke-width="2"/>
<path d="M1217.43 662C1217.43 681.504 1214.04 699.114 1208.6 711.811C1205.88 718.161 1202.66 723.236 1199.14 726.709C1195.63 730.177 1191.86 732 1188 732C1184.14 732 1180.37 730.177 1176.86 726.709C1173.34 723.236 1170.12 718.161 1167.4 711.811C1161.96 699.114 1158.57 681.504 1158.57 662C1158.57 642.496 1161.96 624.886 1167.4 612.189C1170.12 605.839 1173.34 600.764 1176.86 597.291C1180.37 593.823 1184.14 592 1188 592C1191.86 592 1195.63 593.823 1199.14 597.291C1202.66 600.764 1205.88 605.839 1208.6 612.189C1214.04 624.886 1217.43 642.496 1217.43 662Z" stroke="white" stroke-width="2"/>
<path d="M1188 691.428C1168.5 691.428 1150.89 688.038 1138.19 682.597C1131.84 679.875 1126.76 676.661 1123.29 673.142C1119.82 669.627 1118 665.863 1118 662C1118 658.137 1119.82 654.373 1123.29 650.858C1126.76 647.339 1131.84 644.124 1138.19 641.403C1150.89 635.961 1168.5 632.571 1188 632.571C1207.5 632.571 1225.11 635.961 1237.81 641.403C1244.16 644.124 1249.24 647.339 1252.71 650.858C1256.18 654.373 1258 658.137 1258 662C1258 665.863 1256.18 669.627 1252.71 673.142C1249.24 676.661 1244.16 679.875 1237.81 682.597C1225.11 688.038 1207.5 691.428 1188 691.428Z" stroke="white" stroke-width="2"/>
<path d="M254.75 607.994L258.292 617.991C258.494 618.559 258.941 619.006 259.509 619.208L269.506 622.75L259.509 626.292C258.941 626.494 258.494 626.941 258.292 627.509L254.75 637.506L251.208 627.509C251.006 626.941 250.559 626.494 249.991 626.292L239.994 622.75L249.991 619.208C250.559 619.006 251.006 618.559 251.208 617.991L254.75 607.994Z" fill="white" stroke="white" stroke-width="2"/>
<path d="M1156.75 200.994L1160.29 210.991C1160.49 211.559 1160.94 212.006 1161.51 212.208L1171.51 215.75L1161.51 219.292C1160.94 219.494 1160.49 219.941 1160.29 220.509L1156.75 230.506L1153.21 220.509C1153.01 219.941 1152.56 219.494 1151.99 219.292L1141.99 215.75L1151.99 212.208C1152.56 212.006 1153.01 211.559 1153.21 210.991L1156.75 200.994Z" fill="white" stroke="white" stroke-width="2"/>
<path d="M587.75 64.9941L591.292 74.9907C591.494 75.5592 591.941 76.0064 592.509 76.2079L602.506 79.75L592.509 83.2921C591.941 83.4936 591.494 83.9408 591.292 84.5093L587.75 94.5059L584.208 84.5093C584.006 83.9408 583.559 83.4936 582.991 83.2921L572.994 79.75L582.991 76.2079C583.559 76.0064 584.006 75.5592 584.208 74.9907L587.75 64.9941Z" fill="white" stroke="white" stroke-width="2"/>
<path d="M429.75 846.994L433.292 856.991C433.494 857.559 433.941 858.006 434.509 858.208L444.506 861.75L434.509 865.292C433.941 865.494 433.494 865.941 433.292 866.509L429.75 876.506L426.208 866.509C426.006 865.941 425.559 865.494 424.991 865.292L414.994 861.75L424.991 858.208C425.559 858.006 426.006 857.559 426.208 856.991L429.75 846.994Z" fill="white" stroke="white" stroke-width="2"/>
<path d="M62.75 405.994L66.2921 415.991C66.4936 416.559 66.9408 417.006 67.5093 417.208L77.5059 420.75L67.5093 424.292C66.9408 424.494 66.4936 424.941 66.2921 425.509L62.75 435.506L59.2079 425.509C59.0064 424.941 58.5592 424.494 57.9907 424.292L47.9941 420.75L57.9907 417.208C58.5592 417.006 59.0064 416.559 59.2079 415.991L62.75 405.994Z" fill="white" stroke="white" stroke-width="2"/>
<path d="M419 303.994L425.485 322.297C425.687 322.866 426.134 323.313 426.703 323.515L445.006 330L426.703 336.485C426.134 336.687 425.687 337.134 425.485 337.703L419 356.006L412.515 337.703C412.313 337.134 411.866 336.687 411.297 336.485L392.994 330L411.297 323.515C411.866 323.313 412.313 322.866 412.515 322.297L419 303.994Z" fill="white" stroke="white" stroke-width="2"/>
<path d="M1082 910.994L1090.06 933.728C1090.26 934.296 1090.7 934.743 1091.27 934.945L1114.01 943L1091.27 951.055C1090.7 951.257 1090.26 951.704 1090.06 952.272L1082 975.006L1073.94 952.272C1073.74 951.704 1073.3 951.257 1072.73 951.055L1049.99 943L1072.73 934.945C1073.3 934.743 1073.74 934.296 1073.94 933.728L1082 910.994Z" fill="white" stroke="white" stroke-width="2"/>
<path d="M194 806.994L200.485 825.297C200.687 825.866 201.134 826.313 201.703 826.515L220.006 833L201.703 839.485C201.134 839.687 200.687 840.134 200.485 840.703L194 859.006L187.515 840.703C187.313 840.134 186.866 839.687 186.297 839.485L167.994 833L186.297 826.515C186.866 826.313 187.313 825.866 187.515 825.297L194 806.994Z" fill="white" stroke="white" stroke-width="2"/>
<path d="M989 502.994L995.485 521.297C995.687 521.866 996.134 522.313 996.703 522.515L1015.01 529L996.703 535.485C996.134 535.687 995.687 536.134 995.485 536.703L989 555.006L982.515 536.703C982.313 536.134 981.866 535.687 981.297 535.485L962.994 529L981.297 522.515C981.866 522.313 982.313 521.866 982.515 521.297L989 502.994Z" fill="white" stroke="white" stroke-width="2"/>
<path d="M1399 309.994L1405.49 328.297C1405.69 328.866 1406.13 329.313 1406.7 329.515L1425.01 336L1406.7 342.485C1406.13 342.687 1405.69 343.134 1405.49 343.703L1399 362.006L1392.51 343.703C1392.31 343.134 1391.87 342.687 1391.3 342.485L1372.99 336L1391.3 329.515C1391.87 329.313 1392.31 328.866 1392.51 328.297L1399 309.994Z" fill="white" stroke="white" stroke-width="2"/>
<path d="M1078 -7.00587L1084.49 11.2974C1084.69 11.8659 1085.13 12.3131 1085.7 12.5145L1104.01 19L1085.7 25.4855C1085.13 25.6869 1084.69 26.1341 1084.49 26.7026L1078 45.0059L1071.51 26.7026C1071.31 26.1341 1070.87 25.6869 1070.3 25.4855L1051.99 19L1070.3 12.5145C1070.87 12.3131 1071.31 11.8659 1071.51 11.2974L1078 -7.00587Z" fill="white" stroke="white" stroke-width="2"/>
</g>
<defs>
<filter id="filter0_f_369_1790" x="-281" y="-38" width="962" height="979" filterUnits="userSpaceOnUse" color-interpolation-filters="sRGB">
<feFlood flood-opacity="0" result="BackgroundImageFix"/>
<feBlend mode="normal" in="SourceGraphic" in2="BackgroundImageFix" result="shape"/>
<feGaussianBlur stdDeviation="100" result="effect1_foregroundBlur_369_1790"/>
</filter>
<filter id="filter1_f_369_1790" x="-127.154" y="372.516" width="800.308" height="736.968" filterUnits="userSpaceOnUse" color-interpolation-filters="sRGB">
<feFlood flood-opacity="0" result="BackgroundImageFix"/>
<feBlend mode="normal" in="SourceGraphic" in2="BackgroundImageFix" result="shape"/>
<feGaussianBlur stdDeviation="100" result="effect1_foregroundBlur_369_1790"/>
</filter>
<filter id="filter2_f_369_1790" x="577.716" y="169" width="800.308" height="736.968" filterUnits="userSpaceOnUse" color-interpolation-filters="sRGB">
<feFlood flood-opacity="0" result="BackgroundImageFix"/>
<feBlend mode="normal" in="SourceGraphic" in2="BackgroundImageFix" result="shape"/>
<feGaussianBlur stdDeviation="100" result="effect1_foregroundBlur_369_1790"/>
</filter>
<filter id="filter3_f_369_1790" x="693.773" y="-322.341" width="847.089" height="877.613" filterUnits="userSpaceOnUse" color-interpolation-filters="sRGB">
<feFlood flood-opacity="0" result="BackgroundImageFix"/>
<feBlend mode="normal" in="SourceGraphic" in2="BackgroundImageFix" result="shape"/>
<feGaussianBlur stdDeviation="100" result="effect1_foregroundBlur_369_1790"/>
</filter>
<filter id="filter4_f_369_1790" x="-9.35254" y="-409.779" width="945.792" height="911.876" filterUnits="userSpaceOnUse" color-interpolation-filters="sRGB">
<feFlood flood-opacity="0" result="BackgroundImageFix"/>
<feBlend mode="normal" in="SourceGraphic" in2="BackgroundImageFix" result="shape"/>
<feGaussianBlur stdDeviation="100" result="effect1_foregroundBlur_369_1790"/>
</filter>
<filter id="filter5_f_369_1790" x="702.881" y="283.674" width="1074.34" height="1120.38" filterUnits="userSpaceOnUse" color-interpolation-filters="sRGB">
<feFlood flood-opacity="0" result="BackgroundImageFix"/>
<feBlend mode="normal" in="SourceGraphic" in2="BackgroundImageFix" result="shape"/>
<feGaussianBlur stdDeviation="100" result="effect1_foregroundBlur_369_1790"/>
</filter>
<filter id="filter6_f_369_1790" x="472.458" y="137" width="488.542" height="474.986" filterUnits="userSpaceOnUse" color-interpolation-filters="sRGB">
<feFlood flood-opacity="0" result="BackgroundImageFix"/>
<feBlend mode="normal" in="SourceGraphic" in2="BackgroundImageFix" result="shape"/>
<feGaussianBlur stdDeviation="0.5" result="effect1_foregroundBlur_369_1790"/>
</filter>
<filter id="filter7_f_369_1790" x="805" y="136" width="157" height="157" filterUnits="userSpaceOnUse" color-interpolation-filters="sRGB">
<feFlood flood-opacity="0" result="BackgroundImageFix"/>
<feBlend mode="normal" in="SourceGraphic" in2="BackgroundImageFix" result="shape"/>
<feGaussianBlur stdDeviation="1" result="effect1_foregroundBlur_369_1790"/>
</filter>
<clipPath id="clip0_369_1790">
<rect width="1440" height="1024" fill="white"/>
</clipPath>
</defs>
</svg>
