<svg width="315" height="203" viewBox="0 0 315 203" fill="none" xmlns="http://www.w3.org/2000/svg">
<path d="M166.553 175.891V129.818H208.545V175.891H197.949V136.071L200.384 138.506H174.715L177.15 136.071V175.891H166.553ZM214.767 175.891L235.302 129.818H245.833L266.434 175.891H255.245L238.396 135.215H242.608L225.693 175.891H214.767ZM225.034 166.018L227.865 157.923H251.559L254.455 166.018H225.034ZM293.687 176.681C290.133 176.681 286.82 176.111 283.749 174.97C280.721 173.785 278.088 172.118 275.85 169.967C273.613 167.817 271.857 165.294 270.585 162.398C269.356 159.502 268.742 156.321 268.742 152.855C268.742 149.388 269.356 146.207 270.585 143.311C271.857 140.415 273.613 137.892 275.85 135.742C278.132 133.592 280.787 131.946 283.814 130.806C286.842 129.621 290.155 129.028 293.753 129.028C297.746 129.028 301.344 129.73 304.547 131.135C307.794 132.495 310.515 134.513 312.709 137.19L305.864 143.508C304.284 141.709 302.529 140.371 300.598 139.494C298.667 138.572 296.561 138.111 294.279 138.111C292.129 138.111 290.155 138.462 288.356 139.164C286.557 139.867 284.999 140.876 283.683 142.192C282.366 143.508 281.335 145.066 280.589 146.865C279.887 148.664 279.536 150.661 279.536 152.855C279.536 155.049 279.887 157.045 280.589 158.844C281.335 160.643 282.366 162.201 283.683 163.517C284.999 164.834 286.557 165.843 288.356 166.545C290.155 167.247 292.129 167.598 294.279 167.598C296.561 167.598 298.667 167.159 300.598 166.282C302.529 165.36 304.284 163.978 305.864 162.135L312.709 168.454C310.515 171.13 307.794 173.171 304.547 174.575C301.344 175.979 297.724 176.681 293.687 176.681Z" fill="white"/>
<path fill-rule="evenodd" clip-rule="evenodd" d="M79.2766 102.102C78.448 100.534 76.5052 99.9347 74.9371 100.763C70.0741 103.333 65.3538 102.419 60.4606 99.0457C55.4397 95.5838 50.6756 89.7732 46.4545 83.5274C43.2022 78.715 40.4155 73.8697 38.1333 69.9015C37.466 68.7413 36.8419 67.656 36.2619 66.6686C35.0725 64.6437 33.8864 62.7017 32.8769 61.6327C32.6081 61.348 32.1884 60.9443 31.6343 60.6345C31.1006 60.3361 29.9244 59.8505 28.5491 60.3802C27.2147 60.8942 26.6609 61.9982 26.4559 62.5327C26.2331 63.1134 26.1556 63.694 26.1211 64.1273C25.9803 65.8952 27.2994 67.4425 29.0673 67.5833C29.1491 67.5898 29.2304 67.5932 29.3111 67.5936C29.6947 68.1955 30.1629 68.9658 30.7241 69.9214C31.2593 70.8325 31.8515 71.8624 32.496 72.9834C34.7856 76.9653 37.7352 82.0953 41.1334 87.1235C45.4703 93.5408 50.7785 100.171 56.815 104.333C62.9794 108.583 70.3018 110.477 77.9377 106.442C79.5057 105.613 80.1052 103.67 79.2766 102.102ZM28.1787 66.0134C28.1787 66.0137 28.184 66.0191 28.1945 66.0287C28.1839 66.0178 28.1787 66.0131 28.1787 66.0134ZM32.5298 64.5714C32.5315 64.5623 32.5321 64.5573 32.532 64.557C32.532 64.5567 32.5311 64.5613 32.5298 64.5714Z" fill="white"/>
<path fill-rule="evenodd" clip-rule="evenodd" d="M110.026 116.212C110.646 116.243 111.265 116.375 111.83 116.531C113.54 117.001 114.545 118.768 114.074 120.478C113.887 121.161 113.493 121.73 112.978 122.139C113.288 122.863 113.655 123.728 114.011 124.654C115.872 129.51 117.855 137.237 112.606 145.16C112.605 145.161 112.604 145.162 112.604 145.164C112.096 145.929 111.617 146.712 111.165 147.508C108 153.084 106.15 159.337 105.178 164.958C105.107 165.363 105.042 165.764 104.981 166.16C104.07 172.092 104.188 176.849 104.553 178.774C104.594 178.992 104.612 179.209 104.609 179.422C104.587 180.916 103.52 182.238 101.996 182.527C100.253 182.857 98.5728 181.712 98.2427 179.97C97.6589 176.889 97.6528 170.78 98.8491 163.863C99.9054 157.756 101.946 150.734 105.589 144.322C106.109 143.406 106.662 142.502 107.25 141.616C110.756 136.326 109.632 131.174 108.014 126.953C107.69 126.109 107.365 125.348 107.051 124.613C106.968 124.419 106.886 124.227 106.805 124.036C106.462 123.226 106.044 122.225 105.846 121.336C105.747 120.892 105.628 120.171 105.775 119.368C105.947 118.423 106.494 117.4 107.582 116.762C108.506 116.22 109.449 116.183 110.026 116.212ZM112.115 119.941C112.107 119.908 112.11 119.91 112.115 119.942C112.115 119.942 112.115 119.942 112.115 119.941Z" fill="#396D93"/>
<path fill-rule="evenodd" clip-rule="evenodd" d="M89.6829 109.432C90.3028 109.463 90.9217 109.595 91.4862 109.75C93.1962 110.221 94.2012 111.988 93.7309 113.698C93.5433 114.38 93.1493 114.95 92.6349 115.359C92.9444 116.083 93.312 116.947 93.6672 117.874C95.5288 122.73 97.5113 130.457 92.2627 138.38C92.2618 138.381 92.261 138.382 92.2602 138.383C91.7531 139.149 91.2741 139.931 90.822 140.728C87.6569 146.304 85.8065 152.557 84.8342 158.178C84.7641 158.583 84.6988 158.984 84.638 159.379C83.7267 165.312 83.8446 170.068 84.2095 171.994C84.2507 172.212 84.269 172.429 84.2658 172.642C84.2441 174.135 83.1769 175.458 81.6523 175.747C79.9098 176.077 78.2296 174.932 77.8994 173.19C77.3156 170.109 77.3095 164 78.5058 157.083C79.5621 150.976 81.6028 143.954 85.2457 137.542C85.7661 136.626 86.3192 135.722 86.9068 134.835C90.4126 129.546 89.2886 124.394 87.6704 120.173C87.3469 119.329 87.0218 118.568 86.7076 117.833C86.6249 117.639 86.5429 117.447 86.4618 117.256C86.1184 116.445 85.7003 115.445 85.5025 114.556C85.4038 114.112 85.2848 113.391 85.4315 112.588C85.6042 111.643 86.1504 110.62 87.2387 109.982C88.163 109.44 89.1058 109.403 89.6829 109.432ZM91.7716 113.161C91.7641 113.127 91.767 113.13 91.7719 113.162C91.7718 113.162 91.7717 113.161 91.7716 113.161Z" fill="#396D93"/>
<path d="M132.247 27.8404C135.018 27.6741 137.795 28.0482 140.422 28.9418L192.104 46.5166C193 46.8213 192.813 48.1397 191.868 48.1828L133.523 56.3381C131.004 56.4529 128.484 56.1218 126.08 55.3599L73.9426 32.9988C73.0376 32.7119 73.2023 31.3846 74.15 31.3277L132.247 27.8404Z" fill="#F19031"/>
<path d="M130.018 56.1239C130.38 52.982 132.977 50.5717 136.137 50.4431L190.598 48.2266C194.548 48.0658 197.704 51.4779 197.237 55.4035L188.619 127.731C188.284 130.542 186.149 132.802 183.362 133.295L116.261 143.781C118.693 142.751 120.122 141.28 120.557 136.437L130.018 56.1239Z" fill="#396D93"/>
<path fill-rule="evenodd" clip-rule="evenodd" d="M150.974 104.333C152.6 103.627 154.492 104.373 155.198 106C169.368 138.65 159.318 162.06 151.694 170.13C150.476 171.419 148.443 171.477 147.154 170.259C145.865 169.041 145.807 167.009 147.025 165.72C152.746 159.664 162.536 139.04 149.306 108.557C148.6 106.93 149.347 105.039 150.974 104.333Z" fill="white"/>
<path d="M69.4892 36.932C69.8421 34.2968 72.4862 32.617 75.0216 33.4173L125.584 49.3767C128.525 50.3049 130.391 53.1922 130.029 56.2547L120.303 138.58C119.807 142.785 115.447 145.367 111.52 143.781L62.692 124.059C59.9722 122.96 58.3423 120.159 58.7317 117.251L69.4892 36.932Z" fill="white"/>
<path d="M115.914 69.6593C112.336 71.7722 112.546 66.5171 107.829 65.6246C103.113 64.7322 101.419 69.3578 98.8352 66.4274C99.2241 63.3621 103.735 61.4255 108.451 62.318C113.167 63.2104 116.509 66.4973 115.914 69.6593Z" fill="#F19031"/>
<path d="M76.6379 91.7672C80.0361 89.2629 80.2361 94.7272 85.0005 95.2372C89.765 95.7472 91.0909 90.8047 93.8915 93.6141C93.743 96.8249 89.4038 99.2285 84.6393 98.7185C79.8749 98.2085 76.2925 95.0963 76.6379 91.7672Z" fill="#F19031"/>
<path d="M80.6293 63.5957C77.187 66.1017 77.0677 60.5576 72.3011 59.9926C67.5345 59.4276 66.1325 64.4272 63.3678 61.5498C63.5643 58.2948 67.9481 55.9004 72.7147 56.4653C77.4813 57.0303 81.0248 60.2227 80.6293 63.5957Z" fill="#F19031"/>
<path d="M80.636 80.6809C79.6503 87.3146 73.2817 91.8575 66.4114 90.8278C59.541 89.7982 54.7706 83.5858 55.7564 76.9522C56.7421 70.3185 63.1107 65.7756 69.981 66.8053C76.8513 67.8349 81.6217 74.0473 80.636 80.6809Z" fill="#C2E0F2"/>
<path d="M77.7708 77.2771C77.3227 80.2924 74.3386 82.344 71.1055 81.8594C67.8724 81.3749 65.6147 78.5377 66.0627 75.5224C66.5108 72.5071 69.495 70.4555 72.7281 70.9401C75.9611 71.4246 78.2189 74.2618 77.7708 77.2771Z" fill="#396D93"/>
<path d="M119.047 86.4392C118.061 93.0729 111.693 97.6158 104.823 96.5861C97.9522 95.5565 93.1818 89.3441 94.1675 82.7105C95.1533 76.0768 101.522 71.5339 108.392 72.5636C115.262 73.5932 120.033 79.8056 119.047 86.4392Z" fill="#D2E7F4"/>
<path d="M115.826 82.9781C115.378 85.9934 112.475 88.0573 109.343 87.5879C106.211 87.1185 104.036 84.2936 104.484 81.2783C104.932 78.263 107.834 76.1991 110.966 76.6685C114.098 77.1379 116.274 79.9628 115.826 82.9781Z" fill="#396D93"/>
</svg>
