<svg width="278" height="167" viewBox="0 0 278 167" fill="none" xmlns="http://www.w3.org/2000/svg">
<path d="M129.553 150.891V104.818H171.545V150.891H160.949V111.071L163.384 113.506H137.715L140.15 111.071V150.891H129.553ZM177.767 150.891L198.302 104.818H208.833L229.434 150.891H218.245L201.396 110.215H205.608L188.693 150.891H177.767ZM188.034 141.018L190.865 132.923H214.559L217.455 141.018H188.034ZM256.687 151.681C253.133 151.681 249.82 151.111 246.749 149.97C243.721 148.785 241.088 147.118 238.85 144.967C236.613 142.817 234.857 140.294 233.585 137.398C232.356 134.502 231.742 131.321 231.742 127.855C231.742 124.388 232.356 121.207 233.585 118.311C234.857 115.415 236.613 112.892 238.85 110.742C241.132 108.592 243.787 106.946 246.814 105.806C249.842 104.621 253.155 104.028 256.753 104.028C260.746 104.028 264.344 104.73 267.547 106.135C270.794 107.495 273.515 109.513 275.709 112.19L268.864 118.508C267.284 116.709 265.529 115.371 263.598 114.494C261.667 113.572 259.561 113.111 257.279 113.111C255.129 113.111 253.155 113.462 251.356 114.164C249.557 114.867 247.999 115.876 246.683 117.192C245.366 118.508 244.335 120.066 243.589 121.865C242.887 123.664 242.536 125.661 242.536 127.855C242.536 130.049 242.887 132.045 243.589 133.844C244.335 135.643 245.366 137.201 246.683 138.517C247.999 139.834 249.557 140.843 251.356 141.545C253.155 142.247 255.129 142.598 257.279 142.598C259.561 142.598 261.667 142.159 263.598 141.282C265.529 140.36 267.284 138.978 268.864 137.135L275.709 143.454C273.515 146.13 270.794 148.171 267.547 149.575C264.344 150.979 260.724 151.681 256.687 151.681Z" fill="white"/>
<path fill-rule="evenodd" clip-rule="evenodd" d="M61.4493 84.8548C60.2464 83.5583 58.2203 83.4823 56.9238 84.6852C52.9029 88.4155 48.1203 88.7538 42.5364 86.767C36.8066 84.7284 30.718 80.361 25.0402 75.4343C20.6654 71.6383 16.7307 67.6904 13.5082 64.4572C12.566 63.5118 11.6848 62.6276 10.8712 61.8261C9.20295 60.1828 7.55923 58.6183 6.31101 57.8491C5.97858 57.6443 5.47016 57.3638 4.85639 57.2083C4.26532 57.0586 3.00707 56.8945 1.81912 57.7597C0.666384 58.5992 0.417922 59.8055 0.35838 60.3733C0.293703 60.9901 0.368908 61.5693 0.447514 61.9956C0.76818 63.7348 2.43805 64.8848 4.17727 64.5641C4.25773 64.5493 4.33693 64.5316 4.41479 64.5111C4.93961 64.9919 5.5894 65.6131 6.37665 66.3886C7.1273 67.1281 7.96356 67.9673 8.87368 68.8807C12.1067 72.1253 16.2719 76.3053 20.8429 80.2716C26.6766 85.3335 33.5008 90.3499 40.3895 92.8009C47.4241 95.3038 54.9659 95.2376 61.2796 89.3802C62.5761 88.1774 62.6521 86.1513 61.4493 84.8548ZM2.91615 63.2813C2.91623 63.2816 2.92274 63.2855 2.93539 63.2919C2.92239 63.2842 2.91608 63.281 2.91615 63.2813ZM6.73512 60.7693C6.73435 60.7601 6.73371 60.7552 6.73356 60.7549C6.7334 60.7546 6.73378 60.7593 6.73512 60.7693Z" fill="#F19031"/>
<path fill-rule="evenodd" clip-rule="evenodd" d="M94.7094 90.5089C95.3145 90.3789 95.9447 90.3464 96.5286 90.3502C98.2971 90.3619 99.7213 91.805 99.7096 93.5735C99.705 94.2789 99.4726 94.9295 99.0826 95.4561C99.5675 96.0737 100.145 96.8113 100.726 97.6121C103.772 101.809 107.676 108.74 104.666 117.726C104.665 117.728 104.665 117.729 104.664 117.731C104.373 118.598 104.114 119.476 103.884 120.36C102.274 126.548 102.106 133.048 102.62 138.713C102.657 139.122 102.698 139.525 102.741 139.922C103.395 145.871 104.736 150.422 105.584 152.183C105.68 152.382 105.754 152.586 105.806 152.792C106.17 154.237 105.484 155.786 104.09 156.458C102.496 157.225 100.583 156.556 99.8148 154.963C98.4574 152.146 96.8747 146.263 96.2419 139.292C95.6831 133.137 95.8363 125.846 97.6903 118.73C97.9552 117.713 98.2548 116.7 98.5919 115.695C100.604 109.695 98.1912 105.022 95.5431 101.374C95.0137 100.645 94.5042 99.9959 94.0117 99.3687C93.882 99.2034 93.7535 99.0397 93.6261 98.8764C93.0861 98.1843 92.4251 97.3284 92.0051 96.5232C91.7955 96.1212 91.4948 95.4573 91.4289 94.6463C91.3513 93.6914 91.6134 92.565 92.497 91.6695C93.2474 90.9089 94.146 90.6299 94.7094 90.5089ZM97.6838 93.5618C97.6679 93.5313 97.6712 93.5328 97.6843 93.5628C97.6841 93.5625 97.684 93.5621 97.6838 93.5618Z" fill="#29648F"/>
<path fill-rule="evenodd" clip-rule="evenodd" d="M67.1908 90.5089C67.7959 90.3789 68.4262 90.3464 69.0101 90.3502C70.7786 90.3619 72.2027 91.805 72.1911 93.5735C72.1864 94.2789 71.954 94.9295 71.5641 95.4561C72.049 96.0737 72.6262 96.8113 73.2075 97.6121C76.2538 101.809 80.1578 108.74 77.147 117.726C77.1466 117.728 77.1461 117.729 77.1456 117.731C76.8547 118.598 76.5953 119.476 76.3654 120.36C74.7558 126.548 74.5872 133.048 75.1015 138.713C75.1386 139.122 75.1791 139.525 75.2227 139.922C75.8761 145.871 77.2172 150.422 78.0656 152.183C78.1616 152.382 78.2351 152.586 78.2872 152.792C78.6517 154.237 77.9651 155.786 76.5711 156.458C74.9779 157.225 73.064 156.556 72.2962 154.963C70.9388 152.146 69.3561 146.263 68.7233 139.292C68.1646 133.137 68.3178 125.846 70.1718 118.73C70.4366 117.713 70.7362 116.7 71.0734 115.695C73.085 109.695 70.6727 105.022 68.0246 101.374C67.4951 100.645 66.9856 99.9959 66.4932 99.3687C66.3635 99.2034 66.2349 99.0397 66.1075 98.8764C65.5676 98.1843 64.9065 97.3284 64.4866 96.5232C64.277 96.1212 63.9763 95.4573 63.9104 94.6463C63.8328 93.6914 64.0949 92.565 64.9784 91.6695C65.7289 90.9089 66.6275 90.6299 67.1908 90.5089ZM70.1652 93.5618C70.1493 93.5313 70.1526 93.5328 70.1657 93.5628C70.1656 93.5625 70.1654 93.5621 70.1652 93.5618Z" fill="#29648F"/>
<path d="M93.1863 3.74247C95.8075 2.86682 98.5736 2.51037 101.331 2.69297L155.552 6.28406C156.492 6.34631 156.651 7.66513 155.754 7.95073L101.331 28.884C98.9379 29.6451 96.43 29.9765 93.9224 29.8631L38.454 23.7677C37.5099 23.725 37.3263 22.4033 38.2229 22.1038L93.1863 3.74247Z" fill="#F19031"/>
<path d="M98.3276 31.5695C97.8667 28.4482 99.742 25.4553 102.747 24.5154L154.542 8.31734C158.299 7.14249 162.213 9.61559 162.774 13.5192L173.122 85.4417C173.525 88.2363 172.054 90.9653 169.501 92.1607L107.684 119.59C109.757 117.97 110.752 116.183 109.923 111.404L98.3276 31.5695Z" fill="#29648F"/>
<path d="M35.1872 28.7067C34.8476 26.0763 36.9572 23.7749 39.6013 23.8914L92.3297 26.215C95.3965 26.3501 97.9345 28.6506 98.3756 31.6951L110.235 113.537C110.841 117.718 107.314 121.332 103.129 120.817L51.0988 114.42C48.2007 114.063 45.9117 111.784 45.5371 108.882L35.1872 28.7067Z" fill="white"/>
<path d="M88.3639 44.1506C85.462 47.1095 84.3081 41.9934 79.5349 42.351C74.7617 42.7086 74.3241 47.6013 71.0787 45.4457C70.6622 42.3927 74.5069 39.3632 79.28 39.0056C84.0532 38.648 88.1202 40.9515 88.3639 44.1506Z" fill="#F19031"/>
<path d="M56.2466 75.5805C58.8734 72.2912 60.4764 77.5029 65.1973 76.7645C69.9181 76.0261 69.9196 70.9232 73.3424 72.9064C74.028 76.0374 70.4687 79.4726 65.7479 80.211C61.027 80.9494 56.7731 78.8763 56.2466 75.5805Z" fill="#F19031"/>
<g filter="url(#filter0_d_306_294)">
<path d="M52.8143 47.4147C50.1454 50.717 48.5996 45.4075 43.8624 46.0935C39.1253 46.7796 39.0653 51.9572 35.6596 49.8991C35.0088 46.7131 38.6133 43.2753 43.3505 42.5892C48.0876 41.9032 52.3247 44.0636 52.8143 47.4147Z" fill="#F19031"/>
</g>
<path fill-rule="evenodd" clip-rule="evenodd" d="M131.092 68.4995C132.477 67.3996 134.491 67.6304 135.591 69.0153C157.667 96.8071 154.029 121.95 148.768 131.691C147.927 133.247 145.985 133.827 144.428 132.987C142.872 132.146 142.292 130.204 143.133 128.648C147.08 121.339 151.187 98.9459 130.576 72.9987C129.476 71.6139 129.707 69.5995 131.092 68.4995Z" fill="#F19031"/>
<path d="M62.6949 67.1466C62.6949 76.1907 55.2161 72.1381 45.9904 72.1381C36.7648 72.1381 29.286 76.1907 29.286 67.1466C29.286 58.1024 36.7648 50.7708 45.9904 50.7708C55.2161 50.7708 62.6949 58.1024 62.6949 67.1466Z" fill="#D2E7F4"/>
<circle cx="49.9087" cy="61.907" r="7.83665" fill="#29648F"/>
<path d="M108.89 67.1466C108.89 76.1907 101.411 72.1381 92.1854 72.1381C82.9598 72.1381 75.481 76.1907 75.481 67.1466C75.481 58.1024 82.9598 50.7708 92.1854 50.7708C101.411 50.7708 108.89 58.1024 108.89 67.1466Z" fill="#D2E7F4"/>
<circle cx="96.5162" cy="61.907" r="7.83665" fill="#29648F"/>
<defs>
<filter id="filter0_d_306_294" x="18.3206" y="35.9886" width="38.8095" height="29.4961" filterUnits="userSpaceOnUse" color-interpolation-filters="sRGB">
<feFlood flood-opacity="0" result="BackgroundImageFix"/>
<feColorMatrix in="SourceAlpha" type="matrix" values="0 0 0 0 0 0 0 0 0 0 0 0 0 0 0 0 0 0 127 0" result="hardAlpha"/>
<feOffset dx="-6.47359" dy="4.31573"/>
<feGaussianBlur stdDeviation="5.39466"/>
<feComposite in2="hardAlpha" operator="out"/>
<feColorMatrix type="matrix" values="0 0 0 0 0 0 0 0 0 0 0 0 0 0 0 0 0 0 0.25 0"/>
<feBlend mode="normal" in2="BackgroundImageFix" result="effect1_dropShadow_306_294"/>
<feBlend mode="normal" in="SourceGraphic" in2="effect1_dropShadow_306_294" result="shape"/>
</filter>
</defs>
</svg>
