<svg width="45" height="48" viewBox="0 0 45 48" fill="none" xmlns="http://www.w3.org/2000/svg">
<path d="M26.8883 12.7357V8.7356H27.6423V12.1071H29.7217V8.7356H30.4816V12.7357H26.8883ZM30.3874 13.6158V12.5529L30.5582 12.7357H29.7217V12.1071H31.0943V13.6158H30.3874Z" fill="#F19031"/>
<path d="M21.7798 12.7357L23.6354 8.7356H24.3894L26.2508 12.7357H25.4497L23.8533 9.12989H24.1596L22.5691 12.7357H21.7798ZM22.6339 11.81L22.8401 11.2271H25.0668L25.273 11.81H22.6339Z" fill="#F19031"/>
<path d="M17.4949 12.7357V8.7356H21.1412V12.7357H20.3872V9.18132L20.5639 9.36419H18.0722L18.2489 9.18132V12.7357H17.4949Z" fill="#F19031"/>
<path d="M33.3216 18.5602C33.0133 18.5602 32.7262 18.5114 32.4602 18.4139C32.1982 18.3126 31.9689 18.172 31.7723 17.9919C31.5796 17.8081 31.4293 17.5925 31.3214 17.3449C31.2135 17.0974 31.1595 16.8273 31.1595 16.5347C31.1595 16.2422 31.2135 15.9721 31.3214 15.7245C31.4293 15.477 31.5815 15.2632 31.7781 15.0832C31.9746 14.8994 32.204 14.7587 32.466 14.6612C32.7281 14.5599 33.0152 14.5093 33.3274 14.5093C33.6588 14.5093 33.9613 14.5655 34.235 14.6781C34.5086 14.7868 34.7398 14.95 34.9287 15.1675L34.4431 15.612C34.2966 15.4582 34.1328 15.3438 33.9517 15.2688C33.7706 15.1901 33.574 15.1507 33.3621 15.1507C33.1501 15.1507 32.9555 15.1844 32.7782 15.2519C32.6048 15.3195 32.4525 15.4151 32.3215 15.5389C32.1943 15.6627 32.0941 15.8089 32.0209 15.9777C31.9515 16.1465 31.9168 16.3322 31.9168 16.5347C31.9168 16.7373 31.9515 16.9229 32.0209 17.0917C32.0941 17.2605 32.1943 17.4068 32.3215 17.5306C32.4525 17.6544 32.6048 17.75 32.7782 17.8175C32.9555 17.885 33.1501 17.9188 33.3621 17.9188C33.574 17.9188 33.7706 17.8813 33.9517 17.8063C34.1328 17.7275 34.2966 17.6093 34.4431 17.4518L34.9287 17.9019C34.7398 18.1157 34.5086 18.2789 34.235 18.3914C33.9613 18.5039 33.6569 18.5602 33.3216 18.5602Z" fill="#F19031"/>
<path d="M27.2396 18.5601V15.4094H27.9807V17.4863L29.7298 15.4094H30.4057V18.5601H29.6646V16.4833L27.9215 18.5601H27.2396Z" fill="#F19031"/>
<path d="M25.2608 18.1285V15.1313H23.6148L23.5848 15.8325C23.5727 16.0964 23.5547 16.3471 23.5307 16.5847C23.5107 16.8184 23.4766 17.0314 23.4286 17.2237C23.3845 17.4159 23.3224 17.5762 23.2423 17.7043C23.1622 17.8325 23.0641 17.9173 22.948 17.9588L22.1069 17.8457C22.2591 17.8532 22.3833 17.8042 22.4794 17.6987C22.5795 17.5931 22.6576 17.4461 22.7137 17.2576C22.7698 17.0691 22.8118 16.8485 22.8398 16.596C22.8679 16.3396 22.8879 16.0625 22.8999 15.7647L22.948 14.5093H26.0297V18.1285H25.2608ZM21.9628 19.3103L21.9688 17.8457H26.6365V19.3103H25.9156V18.4678H22.6897V19.3103H21.9628Z" fill="#F19031"/>
<path d="M17.7415 18.5602V14.5093H18.4825V17.3854L20.6593 14.5093H21.3598V18.5602H20.6188V15.6898L18.442 18.5602H17.7415Z" fill="#F19031"/>
<path d="M12.0123 18.5602V14.5093H12.6382L14.4509 17.4664H14.1144L15.8976 14.5093H16.5235L16.5353 18.5602H15.8031L15.7972 15.6262H15.9507L14.4391 18.0972H14.0967L12.5615 15.6262H12.7386V18.5602H12.0123Z" fill="#F19031"/>
<path d="M0 36V12L22.5 24V48L0 36Z" fill="white"/>
<path d="M0 12L22.5 0L45 12L22.5 24L0 12Z" fill="#F19031"/>
<path d="M44.9999 36L22.4999 48V24L44.9999 12V36Z" fill="#396D93"/>
</svg>
