<svg width="490" height="525" viewBox="0 0 490 525" fill="none" xmlns="http://www.w3.org/2000/svg">
<g filter="url(#filter0_f_369_1791)">
<path d="M219.1 87.0122C221.915 76.749 234.263 72.621 242.506 79.3985C311.723 136.309 384.476 218.803 455.857 311.367C460.545 317.447 459.819 326.069 454.206 331.313L304.749 470.933C299.937 475.429 292.739 476.275 287.005 473.018L146.784 393.371C140.825 389.986 137.923 383.018 139.729 376.433L219.1 87.0122Z" fill="#3B84BA"/>
<path d="M161.988 321.494C150.665 305.077 159.353 356.204 118.554 368.474C77.7558 380.744 45.5972 415.667 38.6563 427.853M118.554 368.474C77.7558 380.744 45.5972 415.667 38.6563 427.853" stroke="#3B84BA" stroke-width="15" stroke-linecap="round"/>
<path d="M132.332 273.083C121.008 256.667 129.696 307.794 88.898 320.064C48.0995 332.334 15.941 367.257 9.00002 379.443M88.898 320.064C48.0995 332.334 15.941 367.257 9.00002 379.443" stroke="#3B84BA" stroke-width="15" stroke-linecap="round"/>
<path d="M365.744 169.898C371.049 173.794 375.532 178.7 378.937 184.336L455.065 310.353C456.205 312.239 453.905 314.315 452.149 312.986L328.567 219.432C323.8 215.823 319.719 211.386 316.517 206.332L236.229 79.59C235.046 77.7222 237.319 75.5951 239.1 76.9031L365.744 169.898Z" fill="#F19031"/>
<path d="M181.695 346.999L289.601 465.096C291.112 466.75 289.178 469.262 287.196 468.22L144.101 392.971C134.479 387.912 126.77 379.847 122.142 370.001L61.673 241.352C60.7384 239.363 63.2246 237.537 64.8374 239.027L181.695 346.999Z" fill="#3B84BA"/>
<path d="M222.561 80.2364C227.152 76.0691 234.383 77.0425 237.706 82.2752L314.684 203.472C318.554 209.565 317.539 217.557 312.267 222.491L145.849 378.266C138.633 385.02 126.983 383.069 122.364 374.333L55.2333 247.38C52.0271 241.317 53.3378 233.847 58.4169 229.236L222.561 80.2364Z" fill="white"/>
<path d="M111.398 171.252C65.6071 198.959 63.4296 239.362 66.7157 260.499" stroke="#F19031" stroke-width="15" stroke-linecap="round"/>
<path d="M166.794 107.172C165.718 118.508 178.612 111.024 186.389 121.076C194.166 131.128 184.59 141.311 194.956 143.574C202.164 138.574 201.704 125.253 193.927 115.201C186.15 105.149 174.003 101.554 166.794 107.172Z" fill="#EC8219"/>
<path d="M142.211 195.916C153.229 198.789 141.78 208.339 148.559 219.089C155.338 229.839 168.186 224.332 166.761 234.846C159.593 239.904 140.872 237.849 134.093 227.099C127.313 216.349 134.463 200.764 142.211 195.916Z" fill="#EC8219"/>
<ellipse cx="33.3008" cy="32.6822" rx="33.3008" ry="32.6822" transform="matrix(0.66351 0.748167 -0.749869 0.661587 155.737 108.211)" fill="#D2E7F4"/>
<ellipse cx="15.6709" cy="14.8555" rx="15.6709" ry="14.8555" transform="matrix(0.66351 0.748167 -0.749869 0.661587 153.752 130.496)" fill="#3B84BA"/>
<ellipse cx="33.3008" cy="32.6822" rx="33.3008" ry="32.6822" transform="matrix(0.66351 0.748167 -0.749869 0.661587 214.268 193.865)" fill="#D2E7F4"/>
<ellipse cx="15.1812" cy="14.8555" rx="15.1812" ry="14.8555" transform="matrix(0.66351 0.748167 -0.749869 0.661587 213.315 219.434)" fill="#3B84BA"/>
<path d="M245.271 326.462C156.605 351.139 101.223 317.15 84.6158 297.071" stroke="#F19031" stroke-width="15" stroke-linecap="round"/>
<path d="M255.391 237.613C244.63 234.906 255.086 225.377 247.945 214.868C240.803 204.359 228.769 209.923 229.53 199.556C236.129 194.496 248.3 199.278 255.442 209.788C262.583 220.297 262.56 232.754 255.391 237.613Z" fill="#EC8219"/>
<g filter="url(#filter1_f_369_1791)">
<rect x="401" y="2" width="21" height="49" rx="7" fill="white"/>
<rect x="335" y="89" width="21" height="49" rx="7" transform="rotate(-90 335 89)" fill="white"/>
<rect x="364.945" y="140.135" width="21.4737" height="48.9868" rx="7" transform="rotate(-135 364.945 140.135)" fill="white"/>
<rect width="21.4737" height="48.9868" rx="7" transform="matrix(0.707107 -0.707107 -0.707107 -0.707107 457.953 140.135)" fill="white"/>
<rect x="401" y="106" width="21" height="49" rx="7" fill="white"/>
<rect x="439" y="89" width="21" height="49" rx="7" transform="rotate(-90 439 89)" fill="white"/>
<rect x="438.5" y="66.5859" width="21.4737" height="48.9868" rx="7" transform="rotate(-135 438.5 66.5859)" fill="white"/>
<rect width="21.4737" height="48.9868" rx="7" transform="matrix(0.707107 -0.707107 -0.707107 -0.707107 384.406 66.5859)" fill="white"/>
</g>
</g>
<defs>
<filter id="filter0_f_369_1791" x="0.458496" y="1" width="488.542" height="474.986" filterUnits="userSpaceOnUse" color-interpolation-filters="sRGB">
<feFlood flood-opacity="0" result="BackgroundImageFix"/>
<feBlend mode="normal" in="SourceGraphic" in2="BackgroundImageFix" result="shape"/>
<feGaussianBlur stdDeviation="0.5" result="effect1_foregroundBlur_369_1791"/>
</filter>
<filter id="filter1_f_369_1791" x="333" y="0" width="157" height="157" filterUnits="userSpaceOnUse" color-interpolation-filters="sRGB">
<feFlood flood-opacity="0" result="BackgroundImageFix"/>
<feBlend mode="normal" in="SourceGraphic" in2="BackgroundImageFix" result="shape"/>
<feGaussianBlur stdDeviation="1" result="effect1_foregroundBlur_369_1791"/>
</filter>
</defs>
</svg>
