<svg width="497" height="523" viewBox="0 0 497 523" fill="none" xmlns="http://www.w3.org/2000/svg">
<g filter="url(#filter0_f_301_620)">
<path d="M170.988 319.494C159.665 303.077 168.353 354.204 127.554 366.474C86.7558 378.744 54.5972 413.667 47.6563 425.853M127.554 366.474C86.7558 378.744 54.5972 413.667 47.6563 425.853" stroke="#29648F" stroke-width="15" stroke-linecap="round"/>
</g>
<g filter="url(#filter1_f_301_620)">
<path d="M141.332 271.083C130.008 254.667 138.696 305.794 97.898 318.064C57.0995 330.334 24.941 365.257 18 377.443M97.898 318.064C57.0995 330.334 24.941 365.257 18 377.443" stroke="#29648F" stroke-width="15" stroke-linecap="round"/>
</g>
<g filter="url(#filter2_f_301_620)">
<path d="M374.744 167.898C380.049 171.794 384.532 176.7 387.937 182.336L464.065 308.353C465.205 310.239 462.905 312.315 461.149 310.986L337.567 217.432C332.8 213.823 328.719 209.386 325.517 204.332L245.229 77.59C244.046 75.7222 246.319 73.5951 248.1 74.9031L374.744 167.898Z" fill="#F19031"/>
</g>
<g filter="url(#filter3_f_301_620)">
<path d="M190.695 344.999L298.601 463.096C300.112 464.75 298.178 467.262 296.196 466.22L153.101 390.971C143.479 385.912 135.77 377.847 131.142 368.001L70.673 239.352C69.7384 237.363 72.2246 235.537 73.8374 237.027L190.695 344.999Z" fill="#093A5E"/>
</g>
<g filter="url(#filter4_f_301_620)">
<path d="M231.561 78.2364C236.152 74.0691 243.383 75.0425 246.706 80.2752L323.684 201.472C327.554 207.565 326.539 215.557 321.267 220.491L154.849 376.266C147.633 383.02 135.983 381.069 131.364 372.333L64.2333 245.38C61.0271 239.317 62.3378 231.847 67.4169 227.236L231.561 78.2364Z" fill="white"/>
</g>
<g filter="url(#filter5_f_301_620)">
<path d="M120.398 169.252C74.6071 196.959 72.4296 237.362 75.7157 258.499" stroke="#F19031" stroke-width="15" stroke-linecap="round"/>
</g>
<g filter="url(#filter6_f_301_620)">
<path d="M175.794 105.172C174.718 116.508 187.612 109.024 195.389 119.076C203.166 129.128 193.59 139.311 203.956 141.574C211.164 136.574 210.704 123.253 202.927 113.201C195.15 103.149 183.003 99.5543 175.794 105.172Z" fill="#EC8219"/>
</g>
<g filter="url(#filter7_f_301_620)">
<path d="M151.211 193.916C162.229 196.789 150.78 206.339 157.559 217.089C164.338 227.839 177.186 222.332 175.761 232.846C168.593 237.904 149.872 235.849 143.093 225.099C136.313 214.349 143.463 198.764 151.211 193.916Z" fill="#EC8219"/>
</g>
<g filter="url(#filter8_f_301_620)">
<ellipse cx="33.3008" cy="32.6822" rx="33.3008" ry="32.6822" transform="matrix(0.66351 0.748167 -0.749869 0.661587 164.737 106.211)" fill="#D2E7F4"/>
</g>
<g filter="url(#filter9_f_301_620)">
<ellipse cx="15.6709" cy="14.8555" rx="15.6709" ry="14.8555" transform="matrix(0.66351 0.748167 -0.749869 0.661587 162.752 128.496)" fill="#29648F"/>
</g>
<g filter="url(#filter10_f_301_620)">
<ellipse cx="33.3008" cy="32.6822" rx="33.3008" ry="32.6822" transform="matrix(0.66351 0.748167 -0.749869 0.661587 223.268 191.865)" fill="#D2E7F4"/>
</g>
<g filter="url(#filter11_f_301_620)">
<ellipse cx="15.1812" cy="14.8555" rx="15.1812" ry="14.8555" transform="matrix(0.66351 0.748167 -0.749869 0.661587 222.315 217.434)" fill="#29648F"/>
</g>
<g filter="url(#filter12_f_301_620)">
<path d="M321.557 220.095C326.926 215.042 335.191 214.623 341.051 219.105L459.056 309.358C466.408 314.981 466.946 325.818 460.188 332.132L313.749 468.934C308.937 473.43 301.739 474.275 296.004 471.018L163.274 395.625C154.507 390.646 153.06 378.657 160.392 371.757L321.557 220.095Z" fill="#29648F"/>
</g>
<g filter="url(#filter13_f_301_620)">
<path d="M254.271 324.462C165.605 349.139 110.223 315.15 93.6158 295.071" stroke="#F19031" stroke-width="15" stroke-linecap="round"/>
</g>
<g filter="url(#filter14_f_301_620)">
<path d="M264.391 235.613C253.63 232.906 264.086 223.377 256.945 212.868C249.803 202.359 237.769 207.923 238.53 197.556C245.129 192.496 257.3 197.278 264.442 207.788C271.583 218.297 271.56 230.754 264.391 235.613Z" fill="#EC8219"/>
</g>
<rect x="410" width="21" height="49" rx="7" fill="#3B84BA"/>
<rect x="344" y="87" width="21" height="49" rx="7" transform="rotate(-90 344 87)" fill="#3B84BA"/>
<rect x="373.945" y="138.135" width="21.4737" height="48.9868" rx="7" transform="rotate(-135 373.945 138.135)" fill="#3B84BA"/>
<rect width="21.4737" height="48.9868" rx="7" transform="matrix(0.707107 -0.707107 -0.707107 -0.707107 466.953 138.135)" fill="#3B84BA"/>
<rect x="410" y="104" width="21" height="49" rx="7" fill="#3B84BA"/>
<rect x="448" y="87" width="21" height="49" rx="7" transform="rotate(-90 448 87)" fill="#3B84BA"/>
<rect x="447.5" y="64.5859" width="21.4737" height="48.9868" rx="7" transform="rotate(-135 447.5 64.5859)" fill="#3B84BA"/>
<rect width="21.4737" height="48.9868" rx="7" transform="matrix(0.707107 -0.707107 -0.707107 -0.707107 393.406 64.5859)" fill="#3B84BA"/>
<defs>
<filter id="filter0_f_301_620" x="30.1147" y="298.815" width="158.415" height="144.499" filterUnits="userSpaceOnUse" color-interpolation-filters="sRGB">
<feFlood flood-opacity="0" result="BackgroundImageFix"/>
<feBlend mode="normal" in="SourceGraphic" in2="BackgroundImageFix" result="shape"/>
<feGaussianBlur stdDeviation="5" result="effect1_foregroundBlur_301_620"/>
</filter>
<filter id="filter1_f_301_620" x="0.458496" y="250.405" width="158.415" height="144.499" filterUnits="userSpaceOnUse" color-interpolation-filters="sRGB">
<feFlood flood-opacity="0" result="BackgroundImageFix"/>
<feBlend mode="normal" in="SourceGraphic" in2="BackgroundImageFix" result="shape"/>
<feGaussianBlur stdDeviation="5" result="effect1_foregroundBlur_301_620"/>
</filter>
<filter id="filter2_f_301_620" x="234.902" y="64.499" width="239.467" height="256.908" filterUnits="userSpaceOnUse" color-interpolation-filters="sRGB">
<feFlood flood-opacity="0" result="BackgroundImageFix"/>
<feBlend mode="normal" in="SourceGraphic" in2="BackgroundImageFix" result="shape"/>
<feGaussianBlur stdDeviation="5" result="effect1_foregroundBlur_301_620"/>
</filter>
<filter id="filter3_f_301_620" x="60.4688" y="226.482" width="248.673" height="249.983" filterUnits="userSpaceOnUse" color-interpolation-filters="sRGB">
<feFlood flood-opacity="0" result="BackgroundImageFix"/>
<feBlend mode="normal" in="SourceGraphic" in2="BackgroundImageFix" result="shape"/>
<feGaussianBlur stdDeviation="5" result="effect1_foregroundBlur_301_620"/>
</filter>
<filter id="filter4_f_301_620" x="52.4912" y="65.6409" width="283.533" height="324.675" filterUnits="userSpaceOnUse" color-interpolation-filters="sRGB">
<feFlood flood-opacity="0" result="BackgroundImageFix"/>
<feBlend mode="normal" in="SourceGraphic" in2="BackgroundImageFix" result="shape"/>
<feGaussianBlur stdDeviation="5" result="effect1_foregroundBlur_301_620"/>
</filter>
<filter id="filter5_f_301_620" x="57.2051" y="151.75" width="80.6924" height="124.252" filterUnits="userSpaceOnUse" color-interpolation-filters="sRGB">
<feFlood flood-opacity="0" result="BackgroundImageFix"/>
<feBlend mode="normal" in="SourceGraphic" in2="BackgroundImageFix" result="shape"/>
<feGaussianBlur stdDeviation="5" result="effect1_foregroundBlur_301_620"/>
</filter>
<filter id="filter6_f_301_620" x="165.731" y="92.5188" width="53.3438" height="59.0552" filterUnits="userSpaceOnUse" color-interpolation-filters="sRGB">
<feFlood flood-opacity="0" result="BackgroundImageFix"/>
<feBlend mode="normal" in="SourceGraphic" in2="BackgroundImageFix" result="shape"/>
<feGaussianBlur stdDeviation="5" result="effect1_foregroundBlur_301_620"/>
</filter>
<filter id="filter7_f_301_620" x="130.381" y="183.917" width="55.4888" height="61.5598" filterUnits="userSpaceOnUse" color-interpolation-filters="sRGB">
<feFlood flood-opacity="0" result="BackgroundImageFix"/>
<feBlend mode="normal" in="SourceGraphic" in2="BackgroundImageFix" result="shape"/>
<feGaussianBlur stdDeviation="5" result="effect1_foregroundBlur_301_620"/>
</filter>
<filter id="filter8_f_301_620" x="119.327" y="109.759" width="85.9951" height="85.978" filterUnits="userSpaceOnUse" color-interpolation-filters="sRGB">
<feFlood flood-opacity="0" result="BackgroundImageFix"/>
<feBlend mode="normal" in="SourceGraphic" in2="BackgroundImageFix" result="shape"/>
<feGaussianBlur stdDeviation="5" result="effect1_foregroundBlur_301_620"/>
</filter>
<filter id="filter9_f_301_620" x="136.772" y="124.75" width="50.4771" height="50.5986" filterUnits="userSpaceOnUse" color-interpolation-filters="sRGB">
<feFlood flood-opacity="0" result="BackgroundImageFix"/>
<feBlend mode="normal" in="SourceGraphic" in2="BackgroundImageFix" result="shape"/>
<feGaussianBlur stdDeviation="5" result="effect1_foregroundBlur_301_620"/>
</filter>
<filter id="filter10_f_301_620" x="177.858" y="195.413" width="85.9951" height="85.978" filterUnits="userSpaceOnUse" color-interpolation-filters="sRGB">
<feFlood flood-opacity="0" result="BackgroundImageFix"/>
<feBlend mode="normal" in="SourceGraphic" in2="BackgroundImageFix" result="shape"/>
<feGaussianBlur stdDeviation="5" result="effect1_foregroundBlur_301_620"/>
</filter>
<filter id="filter11_f_301_620" x="196.229" y="213.6" width="50.0371" height="50.0405" filterUnits="userSpaceOnUse" color-interpolation-filters="sRGB">
<feFlood flood-opacity="0" result="BackgroundImageFix"/>
<feBlend mode="normal" in="SourceGraphic" in2="BackgroundImageFix" result="shape"/>
<feGaussianBlur stdDeviation="5" result="effect1_foregroundBlur_301_620"/>
</filter>
<filter id="filter12_f_301_620" x="145.688" y="206.005" width="329.244" height="276.981" filterUnits="userSpaceOnUse" color-interpolation-filters="sRGB">
<feFlood flood-opacity="0" result="BackgroundImageFix"/>
<feBlend mode="normal" in="SourceGraphic" in2="BackgroundImageFix" result="shape"/>
<feGaussianBlur stdDeviation="5" result="effect1_foregroundBlur_301_620"/>
</filter>
<filter id="filter13_f_301_620" x="76.0728" y="277.614" width="195.743" height="72.9446" filterUnits="userSpaceOnUse" color-interpolation-filters="sRGB">
<feFlood flood-opacity="0" result="BackgroundImageFix"/>
<feBlend mode="normal" in="SourceGraphic" in2="BackgroundImageFix" result="shape"/>
<feGaussianBlur stdDeviation="5" result="effect1_foregroundBlur_301_620"/>
</filter>
<filter id="filter14_f_301_620" x="228.496" y="185.529" width="51.2871" height="60.0837" filterUnits="userSpaceOnUse" color-interpolation-filters="sRGB">
<feFlood flood-opacity="0" result="BackgroundImageFix"/>
<feBlend mode="normal" in="SourceGraphic" in2="BackgroundImageFix" result="shape"/>
<feGaussianBlur stdDeviation="5" result="effect1_foregroundBlur_301_620"/>
</filter>
</defs>
</svg>
