<svg width="261" height="174" viewBox="0 0 261 174" fill="none" xmlns="http://www.w3.org/2000/svg">
<path d="M112.553 149.891V103.818H154.545V149.891H143.949V110.071L146.384 112.506H120.715L123.15 110.071V149.891H112.553ZM160.767 149.891L181.302 103.818H191.833L212.434 149.891H201.245L184.396 109.215H188.608L171.693 149.891H160.767ZM171.034 140.018L173.865 131.923H197.559L200.455 140.018H171.034ZM239.687 150.681C236.133 150.681 232.82 150.111 229.749 148.97C226.721 147.785 224.088 146.118 221.85 143.967C219.613 141.817 217.857 139.294 216.585 136.398C215.356 133.502 214.742 130.321 214.742 126.855C214.742 123.388 215.356 120.207 216.585 117.311C217.857 114.415 219.613 111.892 221.85 109.742C224.132 107.592 226.787 105.946 229.814 104.806C232.842 103.621 236.155 103.028 239.753 103.028C243.746 103.028 247.344 103.73 250.547 105.135C253.794 106.495 256.515 108.513 258.709 111.19L251.864 117.508C250.284 115.709 248.529 114.371 246.598 113.494C244.667 112.572 242.561 112.111 240.279 112.111C238.129 112.111 236.155 112.462 234.356 113.164C232.557 113.867 230.999 114.876 229.683 116.192C228.366 117.508 227.335 119.066 226.589 120.865C225.887 122.664 225.536 124.661 225.536 126.855C225.536 129.049 225.887 131.045 226.589 132.844C227.335 134.643 228.366 136.201 229.683 137.517C230.999 138.834 232.557 139.843 234.356 140.545C236.155 141.247 238.129 141.598 240.279 141.598C242.561 141.598 244.667 141.159 246.598 140.282C248.529 139.36 250.284 137.978 251.864 136.135L258.709 142.454C256.515 145.13 253.794 147.171 250.547 148.575C247.344 149.979 243.724 150.681 239.687 150.681Z" fill="white"/>
<path fill-rule="evenodd" clip-rule="evenodd" d="M25.4487 133.21C26.4842 131.752 26.1417 129.731 24.6838 128.695C20.1622 125.484 18.8415 120.819 19.657 114.882C20.4939 108.79 23.562 101.863 27.2684 95.2267C30.1242 90.1136 33.221 85.4047 35.7573 81.5483C36.4988 80.4208 37.1924 79.3662 37.8181 78.3956C39.1009 76.4055 40.3107 74.4558 40.8148 73.0617C40.949 72.6904 41.1219 72.1293 41.1493 71.4896C41.1756 70.8737 41.0787 69.5943 39.9774 68.5967C38.9087 67.6287 37.6634 67.6314 37.089 67.6896C36.4651 67.7527 35.9073 67.9465 35.5015 68.1122C33.8459 68.7882 33.0518 70.6782 33.7278 72.3338C33.7591 72.4104 33.793 72.4851 33.8293 72.558C33.4615 73.1766 32.9806 73.9479 32.3752 74.887C31.7979 75.7825 31.1396 76.7834 30.4231 77.8726C27.8777 81.7418 24.5986 86.7266 21.6147 92.069C17.8066 98.8872 14.2477 106.677 13.2416 114.001C12.2141 121.48 13.8343 128.932 20.9341 133.975C22.392 135.01 24.4133 134.668 25.4487 133.21ZM34.7377 70.821C34.7374 70.8211 34.7349 70.8283 34.7311 70.8422C34.7361 70.8277 34.738 70.8208 34.7377 70.821ZM38.0116 74.0835C38.0205 74.0808 38.0252 74.0792 38.0255 74.079C38.0257 74.0788 38.0212 74.0801 38.0116 74.0835Z" fill="#F19031"/>
<path fill-rule="evenodd" clip-rule="evenodd" d="M117.289 100.212C117.727 100.729 118.082 101.346 118.377 101.944C119.272 103.754 118.585 106.312 116.843 107.657C116.148 108.193 115.39 108.455 114.673 108.462C114.315 109.43 113.887 110.583 113.399 111.79C110.84 118.112 106.035 127.405 95.6691 131.231C95.6675 131.231 95.6659 131.232 95.6643 131.233C94.6631 131.602 93.6685 132.011 92.6828 132.455C85.7826 135.561 79.3141 140.375 74.0153 145.245C73.6331 145.596 73.2583 145.946 72.8912 146.295C67.3847 151.524 63.6037 156.381 62.3099 158.595C62.1636 158.846 62.0008 159.077 61.825 159.289C60.5939 160.768 58.7208 161.257 57.3469 160.352C55.7766 159.318 55.4527 156.855 56.6234 154.851C58.6933 151.308 63.6583 145.183 70.1781 139.192C75.9352 133.901 83.1719 128.465 91.109 124.895C92.2428 124.385 93.391 123.913 94.5512 123.486C101.473 120.932 104.824 114.892 107.049 109.396C107.494 108.297 107.87 107.28 108.233 106.297C108.329 106.039 108.424 105.782 108.519 105.527C108.922 104.446 109.423 103.116 109.999 102.071C110.286 101.549 110.784 100.733 111.546 100.044C112.444 99.2327 113.684 98.6357 115.016 98.8489C116.147 99.03 116.882 99.7314 117.289 100.212ZM115.816 105.584C115.838 105.544 115.838 105.549 115.816 105.585C115.816 105.585 115.816 105.584 115.816 105.584Z" fill="#29648F"/>
<path fill-rule="evenodd" clip-rule="evenodd" d="M44.1967 89.3743C44.8225 89.3781 45.4518 89.4836 46.0274 89.6149C47.7709 90.0125 48.8619 91.7482 48.4643 93.4916C48.3057 94.187 47.9342 94.7787 47.4342 95.2134C47.7782 95.929 48.1869 96.7832 48.586 97.7008C50.6774 102.509 53.0185 110.205 48.0841 118.419C48.0834 118.42 48.0826 118.422 48.0818 118.423C47.6051 119.216 47.1575 120.026 46.7374 120.849C43.7974 126.606 42.2119 132.987 41.4828 138.693C41.4302 139.104 41.3822 139.511 41.3386 139.912C40.6848 145.929 41.0153 150.714 41.4685 152.638C41.5198 152.855 41.5478 153.073 41.5542 153.288C41.5988 154.793 40.5827 156.173 39.0597 156.532C37.3192 156.942 35.5757 155.864 35.1655 154.123C34.4403 151.046 34.1622 144.892 35.0593 137.872C35.8515 131.673 37.5944 124.508 40.9785 117.887C41.4619 116.941 41.9788 116.007 42.5313 115.087C45.8273 109.603 44.4657 104.463 42.6477 100.284C42.2842 99.4479 41.9229 98.6959 41.5737 97.9691C41.4817 97.7776 41.3905 97.5879 41.3004 97.3989C40.9184 96.5977 40.4526 95.6084 40.2138 94.7217C40.0946 94.2791 39.9427 93.558 40.0547 92.7429C40.1866 91.7832 40.6912 90.7284 41.7591 90.0372C42.666 89.4501 43.6141 89.3708 44.1967 89.3743ZM46.4668 93.0378C46.4577 93.0042 46.4606 93.0064 46.467 93.0389C46.4669 93.0385 46.4669 93.0382 46.4668 93.0378Z" fill="#29648F"/>
<path d="M74.2033 3.78412C76.8536 2.89873 79.6505 2.53831 82.4381 2.72294L137.263 6.354C138.213 6.41694 138.375 7.75043 137.467 8.03922L82.4381 29.2055C80.0189 29.975 77.4831 30.3102 74.9475 30.1954L18.8618 24.0322C17.9072 23.989 17.7216 22.6527 18.6281 22.3498L74.2033 3.78412Z" fill="#F19031"/>
<path d="M79.4018 31.9208C78.9358 28.7648 80.8319 25.7385 83.8708 24.7882L136.242 8.40982C140.041 7.2219 143.998 9.72252 144.566 13.6696L155.029 86.3925C155.436 89.2183 153.949 91.9776 151.368 93.1863L88.862 120.921C90.9582 119.283 91.9644 117.476 91.1259 112.644L79.4018 31.9208Z" fill="#29648F"/>
<path d="M15.5587 29.026C15.2153 26.3663 17.3484 24.0393 20.0219 24.1571L73.3372 26.5065C76.438 26.6432 79.0043 28.9693 79.4504 32.0477L91.4415 114.801C92.054 119.028 88.4879 122.682 84.2571 122.162L31.6474 115.693C28.717 115.333 26.4025 113.028 26.0237 110.094L15.5587 29.026Z" fill="white"/>
<path d="M68.9094 50.4417C65.9752 53.4335 64.8084 48.2604 59.9821 48.622C55.1558 48.9836 54.7134 53.9307 51.4318 51.7511C51.0107 48.6642 54.8981 45.601 59.7244 45.2394C64.5507 44.8778 68.663 47.2069 68.9094 50.4417Z" fill="#F19031"/>
<path d="M36.4347 82.2213C39.0907 78.8954 40.7116 84.1652 45.485 83.4185C50.2584 82.6719 50.2599 77.5122 53.7208 79.5175C54.414 82.6834 50.8151 86.1567 46.0417 86.9034C41.2683 87.65 36.9671 85.5538 36.4347 82.2213Z" fill="#F19031"/>
<path d="M32.9641 53.7417C30.2655 57.0807 28.7025 51.7121 23.9126 52.4058C19.1228 53.0995 19.0621 58.3347 15.6185 56.2537C14.9604 53.0322 18.6051 49.5562 23.395 48.8625C28.1848 48.1688 32.4691 50.3533 32.9641 53.7417Z" fill="#F19031"/>
<path d="M37.4299 70.383C38.201 77.101 33.1839 83.1876 26.2238 83.9777C19.2638 84.7678 12.9965 79.9622 12.2254 73.2442C11.4543 66.5261 16.4714 60.4396 23.4314 59.6495C30.3914 58.8594 36.6587 63.6649 37.4299 70.383Z" fill="#D2E7F4"/>
<path d="M33.7574 67.8131C34.1079 70.8667 31.7369 73.6436 28.4616 74.0154C25.1863 74.3872 22.247 72.2132 21.8965 69.1595C21.546 66.1058 23.917 63.329 27.1923 62.9571C30.4676 62.5853 33.4069 64.7594 33.7574 67.8131Z" fill="#29648F"/>
<path d="M76.3487 65.965C77.1198 72.683 72.1027 78.7696 65.1427 79.5597C58.1827 80.3498 51.9154 75.5442 51.1442 68.8262C50.3731 62.1082 55.3902 56.0216 62.3502 55.2315C69.3103 54.4414 75.5776 59.247 76.3487 65.965Z" fill="#D2E7F4"/>
<path d="M72.3023 63.4369C72.6528 66.4906 70.3648 69.258 67.1918 69.6182C64.0189 69.9784 61.1626 67.7949 60.812 64.7413C60.4615 61.6876 62.7496 58.9202 65.9225 58.56C69.0955 58.1998 71.9518 60.3833 72.3023 63.4369Z" fill="#29648F"/>
<path fill-rule="evenodd" clip-rule="evenodd" d="M128.367 73.1151C130.337 73.4225 131.871 75.3994 131.793 77.5307C130.234 120.303 108.879 138.088 97.3505 141.568C95.509 142.124 93.4459 140.888 92.7424 138.808C92.0388 136.727 92.9614 134.59 94.8028 134.034C103.452 131.424 123.205 116.351 124.66 76.4175C124.738 74.2863 126.398 72.8077 128.367 73.1151Z" fill="#F19031"/>
</svg>
