<svg width="37" height="37" viewBox="0 0 37 37" fill="none" xmlns="http://www.w3.org/2000/svg">
<path fill-rule="evenodd" clip-rule="evenodd" d="M14.0007 10.7034C15.3235 9.93825 16.859 9.5 18.5 9.5C23.1325 9.5 26.9476 13 27.445 17.5H25.6585C25.2047 17.5 24.941 18.012 25.2052 18.38L27.9967 22.2677C28.2191 22.5774 28.6808 22.5774 28.9033 22.2677L31.6947 18.38C31.959 18.012 31.6953 17.5 31.2414 17.5H29.4551C28.9499 11.8935 24.238 7.5 18.5 7.5C16.498 7.5 14.6182 8.03569 12.9992 8.97222C12.5212 9.24876 12.3578 9.86049 12.6344 10.3385C12.9109 10.8166 13.5226 10.98 14.0007 10.7034ZM7.54481 19.5H5.75851C5.30466 19.5 5.04094 18.988 5.30521 18.62L8.09666 14.7323C8.31908 14.4226 8.78083 14.4226 9.00325 14.7323L11.7947 18.62C12.059 18.988 11.7952 19.5 11.3414 19.5H9.55489C10.0523 24 13.8674 27.5 18.5 27.5C20.1574 27.5 21.7074 27.0529 23.0392 26.2733C23.5158 25.9943 24.1284 26.1546 24.4073 26.6312C24.6863 27.1078 24.5261 27.7204 24.0495 27.9994C22.4196 28.9535 20.5221 29.5 18.5 29.5C12.7619 29.5 8.05003 25.1065 7.54481 19.5Z" fill="#3B84BA"/>
</svg>
